<?xml version="1.0" standalone="no"?>
<!DOCTYPE svg PUBLIC "-//W3C//DTD SVG 1.1//EN" "http://www.w3.org/Graphics/SVG/1.1/DTD/svg11.dtd" >
<svg xmlns="http://www.w3.org/2000/svg" xmlns:xlink="http://www.w3.org/1999/xlink" version="1.1">
<metadata>
Created by FontForge 20160407 at Sat Oct 22 23:58:21 2016
 By Jimmy Wärting
Copyright (c)  2-2004-M.Klein
</metadata>
<defs>
<font id="Sansumi-Regular" horiz-adv-x="852" >
  <font-face 
    font-family="Sansumi"
    font-weight="400"
    font-stretch="normal"
    units-per-em="1000"
    panose-1="2 0 5 7 4 0 0 2 0 4"
    ascent="800"
    descent="-200"
    x-height="540"
    cap-height="717"
    bbox="-297 -290 1398 847"
    underline-thickness="50"
    underline-position="-125"
    unicode-range="U+0005-E00F"
  />
<missing-glyph horiz-adv-x="653" 
d="M578 -8v13q-11 12 -17.5 21t-9.5 18t-4 21t-1 31v280q0 86 -52.5 131t-173.5 45q-55 0 -90 -6.5l-35 -6.5l3 -34l26.5 7t94.5 7q55 0 91.5 -9t58.5 -27.5t31.5 -46.5t9.5 -65v-19q-110 -9 -194.5 -23t-142 -38t-87 -61.5t-29.5 -94.5q0 -28 11.5 -56t38.5 -50t72.5 -35.5
t114.5 -13.5q20 0 47.5 3.5t57 13t59.5 25t54 39.5q2 -19 8.5 -35t22.5 -34h35zM510 105q-24 -30 -54 -48t-60 -28t-56.5 -13t-43.5 -3q-63 0 -102.5 12t-62 30t-30.5 39.5t-8 41.5q0 46 26 77t77.5 51.5t130 33t183.5 21.5v-214z" />
    <glyph glyph-name=".notdef" horiz-adv-x="653" 
d="M578 -8v13q-11 12 -17.5 21t-9.5 18t-4 21t-1 31v280q0 86 -52.5 131t-173.5 45q-55 0 -90 -6.5l-35 -6.5l3 -34l26.5 7t94.5 7q55 0 91.5 -9t58.5 -27.5t31.5 -46.5t9.5 -65v-19q-110 -9 -194.5 -23t-142 -38t-87 -61.5t-29.5 -94.5q0 -28 11.5 -56t38.5 -50t72.5 -35.5
t114.5 -13.5q20 0 47.5 3.5t57 13t59.5 25t54 39.5q2 -19 8.5 -35t22.5 -34h35zM510 105q-24 -30 -54 -48t-60 -28t-56.5 -13t-43.5 -3q-63 0 -102.5 12t-62 30t-30.5 39.5t-8 41.5q0 46 26 77t77.5 51.5t130 33t183.5 21.5v-214z" />
    <glyph glyph-name="breve" horiz-adv-x="500" 
d="M386 693h-39q-17 -20 -38.5 -34.5t-58.5 -14.5t-58.5 14.5t-38.5 34.5h-39q10 -16 22.5 -31t29 -26.5t37 -18.5t47.5 -7t47.5 7t37 18.5t29 26.5t22.5 31z" />
    <glyph glyph-name="dotaccent" horiz-adv-x="500" 
d="M267 604v93h-34v-93h34z" />
    <glyph glyph-name="ring" horiz-adv-x="500" 
d="M335 643q0 18 -7.5 31t-20 21.5t-27.5 13t-30 4.5t-30 -4.5t-27.5 -13t-20 -21.5t-7.5 -31t7.5 -31t19.5 -21.5t27 -13t30 -4.5h1q15 0 30 4.5t27.5 13t20 21.5t7.5 31zM299 643q0 -14 -11.5 -25.5t-37.5 -11.5h-1q-28 0 -39 11.5t-11 25.5q0 17 13.5 27t36.5 10
t36.5 -10t13.5 -27z" />
    <glyph glyph-name="hungarumlaut" unicode="&#xa;" horiz-adv-x="500" 
d="M452 710h-54l-102 -157h31zM297 710h-54l-102 -157h31z" />
    <glyph glyph-name="ogonek" horiz-adv-x="500" 
d="M355 -102l-24 18q-34 -29 -70 -29q-16 0 -26 3.5t-15.5 8.5t-7.5 10.5t-2 10.5q0 12 6.5 23.5t23.5 26.5l45 38h-48l-20 -16q-26 -20 -34.5 -38.5t-8.5 -35.5q0 -32 25 -48.5t57 -16.5q29 0 54 12.5t45 32.5z" />
    <glyph glyph-name="caron" horiz-adv-x="500" 
d="M417 686h-47l-120 -65l-120 65h-47l164 -108h6z" />
    <glyph glyph-name="dotlessi" unicode="&#xd;" horiz-adv-x="280" 
d="M158 -8v548h-36v-548h36z" />
    <glyph glyph-name="fraction" horiz-adv-x="296" 
d="M486 713h-43l-622 -733h44z" />
    <glyph glyph-name="fi" horiz-adv-x="869" 
d="M747 639v96h-36v-96h36zM747 -8v548h-36v-548h36zM636 722q-24 19 -45 29.5t-41 18.5q-31 12 -65.5 16.5t-72.5 4.5q-102 0 -164 -37q-81 -49 -81 -151v-63h-131v-34h131v-764h36v764h324v34h-324v62q0 45 18.5 76.5t47.5 48.5t65.5 24t77.5 7q72 0 126 -20
q25 -8 42.5 -19.5t34.5 -28.5z" />
    <glyph glyph-name="fl" horiz-adv-x="869" 
d="M747 -8v743h-36v-743h36zM636 722q-24 19 -45 29.5t-41 18.5q-31 12 -65.5 16.5t-72.5 4.5q-102 0 -164 -37q-81 -49 -81 -151v-63h-131v-34h131v-764h36v764h324v34h-324v62q0 45 18.5 76.5t47.5 48.5t65.5 24t77.5 7q72 0 126 -20q25 -8 42.5 -19.5t34.5 -28.5z" />
    <glyph glyph-name="Lslash" horiz-adv-x="689" 
d="M652 -8v35h-472v299l209 64v35l-209 -64v356h-38v-367l-87 -27v-35l87 27v-323h510z" />
    <glyph glyph-name="lslash" horiz-adv-x="280" 
d="M231 434v40l-73 -57v318h-36v-346l-70 -55v-40l70 55v-357h36v385z" />
    <glyph glyph-name="Zcaron" horiz-adv-x="695" 
d="M535 830h-56l-131 -44q1 0 -19.5 7t-45.5 15t-45.5 15l-20.5 7h-56l184 -83h6zM629 -8v35h-502l484 660v30h-499v-35h451l-485 -660v-30h551z" />
    <glyph glyph-name="zcaron" horiz-adv-x="604" 
d="M469 686h-47l-120 -65l-120 65h-47l164 -108h6zM576 -8v34h-470l454 483v31h-484v-34h434l-455 -483v-31h521z" />
    <glyph glyph-name="space" unicode=" " horiz-adv-x="266" 
 />
    <glyph glyph-name="exclam" unicode="!" horiz-adv-x="320" 
d="M178 717h-36l3 -569h30zM178 -8v96h-36v-96h36z" />
    <glyph glyph-name="quotedbl" unicode="&#x22;" horiz-adv-x="353" 
d="M258 717h-40l6 -179h28zM135 717h-40l6 -179h28z" />
    <glyph glyph-name="numbersign" unicode="#" horiz-adv-x="720" 
d="M686 456h-173l99 244h-36l-99 -244h-149l99 244h-36l-99 -244h-175l-12 -32h173l-58 -142h-174l-12 -32h173l-105 -258h36l105 258h149l-105 -258h36l105 258h175l12 32h-174l58 142h175zM463 424l-58 -142h-149l58 142h149z" />
    <glyph glyph-name="dollar" unicode="$" 
d="M717 199q0 27 -8.5 49t-23 39t-34 30t-41.5 23t-46 17.5t-47 12.5q-21 5 -41.5 9t-37.5 8v263q48 -1 83.5 -8.5t61 -19.5t42 -28t27.5 -34l31 18q-15 24 -34 42.5t-47.5 32t-68 21t-95.5 9.5v73h-34v-73q-78 -1 -128 -16.5t-79.5 -38t-40.5 -49t-11 -50.5q0 -40 17 -66.5
t44 -43.5t60 -26.5t64 -15.5q20 -5 38.5 -8t35.5 -8v-324q-78 2 -143 23t-109 75l-27 -25q25 -30 58 -50.5t69.5 -32.5t75.5 -17.5t76 -5.5v-82h34v82q60 2 111 17.5t88.5 41.5t58.5 60.5t21 75.5zM404 395q-14 4 -30.5 7t-33.5 7q-20 4 -39 9t-38 11q-36 14 -59 36t-23 60
q0 20 8 41t32 39t68 30.5t115 14.5v-255zM681 195q0 -30 -17.5 -57.5t-49 -49.5t-76.5 -35.5t-100 -15.5v316q17 -4 35 -7.5t37 -8.5q22 -5 43 -11.5t40 -14.5q38 -17 63 -44t25 -72z" />
    <glyph glyph-name="percent" unicode="%" horiz-adv-x="1016" 
d="M939 166v1q0 40 -13.5 74.5t-38 59.5t-58.5 39.5t-76 14.5t-76 -14.5t-58.5 -39.5t-38 -59.5t-13.5 -74.5t13.5 -74.5t38 -59.5t58.5 -39.5t76 -14.5t76 14.5t58.5 39.5t38 59t13.5 74zM903 166q0 -35 -11 -63.5t-30.5 -48.5t-47 -31.5t-60.5 -11.5h-1q-34 0 -61.5 11.5
t-47 31.5t-30.5 48.5t-11 63.5q0 34 11 63t30.5 49t47 31.5t61.5 11.5t61.5 -11.5t47 -31.5t30.5 -49t11 -63zM809 724h-42l-560 -743h43zM450 538v1q0 40 -13.5 74.5t-38 59.5t-58.5 39.5t-76 14.5t-76 -14.5t-58.5 -39.5t-38 -59.5t-13.5 -74.5t13.5 -74.5t38 -59.5
t58.5 -39.5t76 -14.5t76 14.5t58.5 39.5t38 59t13.5 74zM414 538q0 -35 -11 -63.5t-30.5 -48.5t-47 -31.5t-60.5 -11.5h-1q-34 0 -61.5 11.5t-47 31.5t-30.5 48.5t-11 63.5q0 34 11 63t30.5 49t47 31.5t61.5 11.5t61.5 -11.5t47 -31.5t30.5 -49t11 -63z" />
    <glyph glyph-name="ampersand" unicode="&#x26;" horiz-adv-x="935" 
d="M903 -8q-29 15 -54 27.5t-48.5 25.5t-46 26t-47.5 29q46 49 80.5 113t44.5 145h-34q-10 -75 -43 -135t-77 -105q-86 60 -159.5 121.5t-139.5 126.5q42 17 78 36t62.5 41.5t42 49t15.5 59.5q0 34 -15 58.5t-39.5 40.5t-57 23.5t-68.5 7.5q-34 0 -64.5 -8t-54 -24.5
t-37.5 -41.5t-14 -58q0 -25 8 -49t21.5 -46t29.5 -42t33 -37q-42 -15 -80.5 -35t-67.5 -46t-46.5 -58.5t-17.5 -73.5q0 -47 19 -81.5t54.5 -57.5t85 -34.5t111.5 -11.5q55 0 102 9t84.5 23t66 32t48.5 35q46 -29 81 -48.5t67 -36.5h77zM542 554q0 -27 -14 -50t-39.5 -42.5
t-60 -37.5t-74.5 -35q-40 43 -65.5 80t-25.5 81v1q0 42 35 70t104 28q30 0 55.5 -6.5t44 -18.5t29.5 -30t11 -40zM651 94q-60 -48 -129.5 -66t-141.5 -18q-13 0 -36 1t-49 5.5t-53 13.5t-49 26t-36 42.5t-14 62.5v1q0 58 47.5 104t153.5 86q71 -72 150.5 -139t156.5 -119z
" />
    <glyph glyph-name="quotesingle" unicode="'" horiz-adv-x="230" 
d="M135 717h-40l6 -179h28z" />
    <glyph glyph-name="parenleft" unicode="(" horiz-adv-x="496" 
d="M410 -174q-45 36 -78.5 76.5t-59.5 91.5q-21 40 -33.5 81.5t-19 80.5t-9 74t-2.5 62t2.5 62t9 73t18.5 79t32 80q27 54 61 95t79 77l-23 20q-24 -18 -44 -36t-37 -38t-32.5 -43t-31.5 -53q-37 -70 -53.5 -150.5t-16.5 -165.5t16.5 -164.5t54.5 -153.5q28 -54 62 -92.5
t82 -75.5z" />
    <glyph glyph-name="parenright" unicode=")" horiz-adv-x="496" 
d="M324 292q0 85 -16.5 165.5t-53.5 150.5q-16 30 -31.5 53t-33 43t-37 38t-43.5 36l-23 -20q45 -36 79 -77t61 -95q19 -39 31.5 -80t19 -79t9 -73t2.5 -62t-2.5 -62t-9 -74t-19 -80.5t-33.5 -81.5q-26 -51 -59.5 -91.5t-78.5 -76.5l23 -20q48 37 82 75.5t62 92.5
q38 74 54.5 153.5t16.5 164.5z" />
    <glyph glyph-name="asterisk" unicode="*" horiz-adv-x="682" 
d="M533 431l-166 89l165 89l-18 32l-160 -99l5 189h-36l5 -189l-160 99l-18 -32l165 -89l-166 -89l18 -32l161 97l-5 -187h36l-5 187l161 -97z" />
    <glyph glyph-name="plus" unicode="+" horiz-adv-x="800" 
d="M664 237v32h-247v185h-34v-185h-247v-32h247v-201h34v201h247z" />
    <glyph glyph-name="comma" unicode="," horiz-adv-x="260" 
d="M160 88h-41l-34 -176h28z" />
    <glyph glyph-name="hyphen" unicode="-" horiz-adv-x="399" 
d="M306 319v34h-299v-34h299z" />
    <glyph glyph-name="period" unicode="." horiz-adv-x="260" 
d="M76 -8v96h-36v-96h36z" />
    <glyph glyph-name="slash" unicode="/" horiz-adv-x="724" 
d="M652 747h-40l-534 -767h41z" />
    <glyph glyph-name="zero" unicode="0" 
d="M785 347q0 85 -27.5 153t-75.5 115t-113.5 72.5t-142.5 25.5t-142.5 -25.5t-113.5 -72.5t-75.5 -114.5t-27.5 -152.5v-1q0 -86 27.5 -154t75.5 -115t113.5 -72.5t142.5 -25.5t142.5 25.5t113.5 72.5t75.5 115t27.5 154zM749 347q0 -82 -25.5 -144t-70 -104t-103 -63.5
t-124.5 -21.5t-124.5 21.5t-103 63.5t-70 104t-25.5 144t25.5 144.5t69.5 104.5t102.5 63.5t124.5 21.5h1q66 0 124.5 -21.5t103 -63.5t70 -104.5t25.5 -144.5z" />
    <glyph glyph-name="one" unicode="1" horiz-adv-x="707" 
d="M411 -8v714h-16l-281 -112l15 -31l246 98v-669h36z" />
    <glyph glyph-name="two" unicode="2" 
d="M727 -8v36h-573q19 54 52.5 94.5t75 71.5t89 55t95.5 45q24 11 47.5 21.5t45.5 21.5q23 11 43 23t37 26q35 27 56.5 62t21.5 83q0 32 -15 64.5t-50 58.5t-94.5 42.5t-147.5 16.5q-118 0 -187.5 -41t-95.5 -122l40 -5q21 66 80 100.5t161 34.5q86 0 139.5 -15t83 -37.5
t40 -48.5t10.5 -48q0 -40 -19.5 -69.5t-54.5 -54.5q-17 -12 -36.5 -23.5t-42.5 -22.5t-46.5 -22t-48.5 -22q-49 -23 -99 -49.5t-94 -62.5t-78 -84t-50 -114l15 -15h600z" />
    <glyph glyph-name="three" unicode="3" 
d="M721 183q0 36 -17 70t-48.5 60t-75 41.5t-95.5 15.5q43 0 79.5 16.5t62.5 41t40.5 53t14.5 53.5q0 37 -15.5 69.5t-47.5 57t-80 38.5t-114 14q-69 0 -118 -14.5t-80.5 -38t-49 -52.5t-23.5 -57l36 -7q6 22 19.5 46.5t40 44t69 32.5t106.5 13q62 0 104 -12.5t68 -33
t37.5 -46.5t11.5 -53q0 -20 -9 -45.5t-37 -48t-80.5 -39.5t-140.5 -20v-31q96 -3 156 -18t93 -38t45 -52t12 -60q0 -36 -15 -67t-46.5 -54t-79.5 -36t-113 -13q-67 0 -114 11.5t-79 32t-52 48.5t-33 60l-36 -11q15 -39 40 -71t62.5 -55t89.5 -35.5t122 -12.5q71 0 125.5 15
t91 42t55 64.5t18.5 81.5z" />
    <glyph glyph-name="four" unicode="4" 
d="M733 192v34h-161v480h-28l-439 -489v-25h431v-200h36v200h161zM545 659q-7 -48 -8 -100t-1 -106v-227h-376l221 248q42 46 82 92t82 93z" />
    <glyph glyph-name="five" unicode="5" 
d="M727 213q0 52 -22.5 95t-63 74t-97.5 48.5t-126 17.5q-65 0 -116.5 -16t-85.5 -39l56 271h403v36h-433l-72 -356l23 -9q31 32 87 56t137 24q64 0 114.5 -15.5t86 -42.5t54.5 -64t19 -81q0 -46 -22 -82.5t-60 -62.5t-89 -40t-109 -14q-60 0 -103.5 12t-75 32.5t-52.5 47.5
t-36 57l-35 -12q15 -34 39.5 -64.5t61.5 -54t86.5 -37.5t115.5 -14q78 0 136.5 20t98.5 52.5t60 74.5t20 86z" />
    <glyph glyph-name="six" unicode="6" 
d="M763 217q0 53 -23.5 95.5t-67 72.5t-105 46.5t-136.5 16.5q-60 0 -108 -10.5t-84.5 -28.5t-61.5 -42t-40 -51q5 176 80.5 270t233.5 94q51 0 90.5 -9.5t69.5 -27.5t51.5 -43t35.5 -56l34 12q-33 72 -100.5 114.5t-180.5 42.5q-95 0 -161.5 -31.5t-108.5 -87.5t-61 -133
t-19 -169q0 -50 14 -105t52 -101t104.5 -76t171.5 -30q94 0 155.5 25t98 61t51.5 77t15 74zM727 216q0 -32 -14 -67.5t-47 -65.5t-87.5 -50t-135.5 -20q-67 0 -115 13.5t-81 35t-53 47.5t-31 50t-14.5 43.5t-3.5 28.5v1q0 26 15 58t49.5 59.5t90 46.5t136.5 19q68 0 122 -14
t91.5 -40t57.5 -62.5t20 -82.5z" />
    <glyph glyph-name="seven" unicode="7" 
d="M699 678v22h-557v-35h512l-343 -673h41z" />
    <glyph glyph-name="eight" unicode="8" 
d="M751 180q0 38 -15.5 70t-42.5 56t-62 41t-74 25q35 7 66 20t53.5 32.5t35.5 46t13 60.5q0 39 -20.5 72.5t-58.5 57.5t-94 38t-126 14q-71 0 -126.5 -14t-93.5 -38t-58.5 -57.5t-20.5 -72.5q0 -33 13 -59t35.5 -46t52.5 -33.5t64 -20.5q-38 -8 -73 -25t-61 -41.5
t-41.5 -56.5t-15.5 -69q0 -48 24.5 -85t68 -62.5t103 -38.5t129.5 -13q74 0 134 14t102.5 39.5t65.5 62.5t23 83zM689 531q0 -29 -16 -55.5t-48.5 -46t-82 -31t-116.5 -11.5t-116.5 11.5t-82 31t-48.5 45.5t-16 55v1q0 30 16.5 57t49.5 47.5t82.5 32.5t114.5 12t114.5 -12
t82.5 -32.5t49.5 -47.5t16.5 -57zM715 179q0 -38 -20.5 -68.5t-58 -52.5t-91 -33.5t-119.5 -11.5t-119.5 11.5t-91 33.5t-58 52t-20.5 68v1q0 32 17 64t52.5 57.5t90 41.5t129.5 16t129.5 -16t90 -41.5t52.5 -57.5t17 -64z" />
    <glyph glyph-name="nine" unicode="9" 
d="M763 401q0 19 -3 50t-14.5 65.5t-34 69.5t-61 63.5t-95.5 46t-137 17.5q-91 0 -152 -22.5t-97.5 -57t-52 -75t-15.5 -75.5q0 -42 17 -84.5t56 -76.5t102.5 -55.5t156.5 -21.5q60 0 108 10.5t84.5 28.5t62 42t39.5 51q-3 -82 -20.5 -149t-54.5 -115t-96 -74t-143 -26
q-52 0 -92 11t-70.5 30t-53.5 45.5t-40 56.5l-35 -13q20 -35 46.5 -65t61.5 -51.5t80 -34t103 -12.5q98 0 165 32.5t108 89.5t59 133.5t18 165.5zM719 461q0 -31 -17 -63.5t-52 -59t-90.5 -43.5t-131.5 -17q-71 0 -125 15t-91 42t-56 64.5t-19 82.5q0 29 12.5 63.5
t44.5 64.5t87 50t140 20q67 0 115 -13.5t81 -35t53 -47.5t31 -50t14.5 -43.5t3.5 -28.5v-1z" />
    <glyph glyph-name="colon" unicode=":" horiz-adv-x="260" 
d="M148 399v96h-36v-96h36zM148 -8v96h-36v-96h36z" />
    <glyph glyph-name="semicolon" unicode=";" horiz-adv-x="260" 
d="M148 399v96h-36v-96h36zM160 88h-41l-34 -176h28z" />
    <glyph glyph-name="less" unicode="&#x3c;" horiz-adv-x="800" 
d="M624 21v35l-444 197l444 197v35l-488 -219v-26z" />
    <glyph glyph-name="equal" unicode="=" horiz-adv-x="800" 
d="M664 301v32h-528v-32h528zM664 173v32h-528v-32h528z" />
    <glyph glyph-name="greater" unicode="&#x3e;" horiz-adv-x="800" 
d="M664 240v26l-488 219v-35l444 -197l-444 -197v-35z" />
    <glyph glyph-name="question" unicode="?" horiz-adv-x="585" 
d="M576 552q0 49 -22.5 82t-60.5 52.5t-88 28t-104 8.5q-69 0 -119.5 -11t-86.5 -31t-60 -47t-39 -60l33 -14q13 29 34.5 53t53.5 41t76.5 26.5t103.5 9.5q49 0 93.5 -7t77.5 -23t52.5 -42t19.5 -64q0 -26 -6.5 -47t-21 -38.5t-38 -33.5t-57.5 -33q-53 -26 -87 -49.5
t-53.5 -52t-25.5 -65t-4 -87.5h31q-1 41 3.5 72t20.5 56.5t45.5 47.5t77.5 45q42 19 70.5 38.5t46.5 41t26 46.5t8 57zM283 -8v96h-36v-96h36z" />
    <glyph glyph-name="at" unicode="@" horiz-adv-x="996" 
d="M700 111l-6 -10q-24 -28 -53.5 -44.5t-58 -25.5t-54 -12t-42.5 -3q-63 0 -102.5 12t-62 30t-30.5 39.5t-8 41.5q0 46 26 77t77.5 51.5t130 33.5t183.5 22v-212zM700 381l4 1l-4 -1v-25q-110 -9 -194.5 -23t-142 -38.5t-87 -62t-29.5 -94.5q0 -28 11.5 -56t38.5 -50
t72.5 -35.5t114.5 -13.5q21 0 49.5 4.5t60 15.5t62 29t56.5 44l14 14l8.5 -0.5t13.5 -0.5q6 1 12 1h12q12 0 25.5 2.5t25.5 13.5q24 21 43.5 52t33 66t21 71t7.5 67q0 54 -24 104t-71 88.5t-116 61.5t-160 23q-101 0 -188.5 -28.5t-152 -82t-101.5 -129.5t-37 -171
q0 -74 29 -136.5t81 -108t124.5 -71.5t158.5 -26q69 0 140 12.5t136 55.5l-24 23q-55 -33 -112 -45.5t-127 -12.5q-81 0 -149 23t-117 64t-76.5 97.5t-27.5 124.5q0 98 39 168.5t103 118.5q63 48 139 69.5t164 21.5q93 0 154 -23t100 -54q46 -37 62.5 -81.5t16.5 -85.5
q0 -32 -6.5 -65t-18.5 -63.5t-28.5 -56.5t-35.5 -44q-8 -7 -16 -9t-17 -2q-8 0 -16.5 0.5t-17.5 -0.5v264v4l-1 -1q0 14 -6.5 43t-25 58t-53 50.5t-90.5 21.5q-27 0 -58 -2t-57 -4.5t-43 -4.5l-17 -2l3 -34l14 2t37.5 5t54.5 5t65 2q55 0 83.5 -23t41.5 -51t14.5 -51z" />
    <glyph glyph-name="A" unicode="A" horiz-adv-x="691" 
d="M678 -8l-321 725h-24l-320 -725h40l110 247h363l111 -247h41zM511 274h-332l85 198q20 47 40.5 93t40.5 96q21 -51 42 -98t41 -95z" />
    <glyph glyph-name="B" unicode="B" horiz-adv-x="801" 
d="M734 194q0 77 -58 122.5t-156 59.5q90 17 129 60.5t39 104.5q0 39 -18.5 71t-59 55.5t-106 36.5t-158.5 13h-204v-725h200q42 0 87.5 2.5t89 9.5t82.5 20.5t68.5 36t47 55.5t17.5 78zM650 543q0 -27 -10 -54t-42.5 -48.5t-93 -35t-160.5 -13.5h-164v290h163q87 0 146 -11
t95 -29.5t51 -44t15 -54.5zM696 194q0 -55 -31.5 -88t-82.5 -50.5t-114 -23t-126 -5.5h-162v330h178q177 0 257.5 -44t80.5 -119z" />
    <glyph glyph-name="C" unicode="C" horiz-adv-x="844" 
d="M782 153l-30 21q-17 -24 -43.5 -52.5t-62 -53t-81 -40.5t-100.5 -16q-68 0 -132 21t-113.5 63t-79.5 106.5t-30 151.5q0 92 32 157t83 106.5t115.5 60.5t129.5 19q48 0 87 -11.5t70.5 -31t56 -45.5t43.5 -56l32 19q-21 33 -49.5 62t-64.5 50.5t-79.5 34t-95.5 12.5
q-88 0 -160 -26.5t-125 -75.5q-54 -50 -83.5 -119t-29.5 -155q0 -87 30.5 -157t87.5 -123q44 -41 114.5 -69t160.5 -28q61 0 110 16t88 41.5t68.5 56.5t50.5 61z" />
    <glyph glyph-name="D" unicode="D" horiz-adv-x="861" 
d="M789 354q0 82 -25 149.5t-76.5 114.5t-129 73t-182.5 26h-234v-725h234q105 0 182.5 26t129 73t76.5 114t25 149zM751 354q0 -73 -21.5 -133t-67 -103t-116 -67t-168.5 -24h-198v655h198q98 0 168.5 -24t116 -67t67 -103.5t21.5 -133.5z" />
    <glyph glyph-name="E" unicode="E" horiz-adv-x="719" 
d="M637 -8v35h-457v326h360v35h-360v294h443v35h-481v-725h495z" />
    <glyph glyph-name="F" unicode="F" horiz-adv-x="700" 
d="M623 682v35h-481v-725h38v361h360v35h-360v294h443z" />
    <glyph glyph-name="G" unicode="G" horiz-adv-x="836" 
d="M749 586q-27 34 -55 61t-62 45.5t-76 28.5t-96 10q-42 0 -87 -9t-88 -28t-81.5 -49t-68 -71.5t-46.5 -96.5t-17 -123q0 -90 31.5 -160t85 -118t124 -73t147.5 -25q79 0 146.5 19t137.5 66v255h-327v-35h289v-203q-53 -34 -116 -51t-123 -17q-74 0 -138.5 22.5t-113.5 66
t-77 107t-28 146.5q0 97 34.5 162.5t87 105.5t114.5 57.5t118 17.5q45 0 81 -8t66 -24.5t56 -41t51 -57.5z" />
    <glyph glyph-name="H" unicode="H" horiz-adv-x="915" 
d="M773 -8v725h-38v-327h-555v327h-38v-725h38v363h555v-363h38z" />
    <glyph glyph-name="I" unicode="I" horiz-adv-x="342" 
d="M190 -8v725h-38v-725h38z" />
    <glyph glyph-name="J" unicode="J" horiz-adv-x="629" 
d="M492 321v396h-38v-395q0 -158 -59.5 -233.5t-168.5 -75.5q-66 0 -113.5 25t-91.5 67l-25 -26q23 -23 46.5 -41.5t50.5 -31.5t59.5 -20.5t72.5 -7.5q126 0 196.5 86.5t70.5 256.5z" />
    <glyph glyph-name="K" unicode="K" horiz-adv-x="744" 
d="M723 -8l-377 424l316 301h-53l-226 -216q-51 -49 -101 -97.5t-102 -98.5v192v220h-38v-725h38v265l141 134l351 -399h51z" />
    <glyph glyph-name="L" unicode="L" horiz-adv-x="689" 
d="M652 -8v35h-472v690h-38v-725h510z" />
    <glyph glyph-name="M" unicode="M" horiz-adv-x="1275" 
d="M1135 -8v725h-42q-169 -253 -282 -422.5t-172 -259.5q-59 90 -172.5 259.5t-281.5 422.5h-43v-725h38q0 246 -0.5 412t-1.5 258q60 -91 170.5 -257.5t274.5 -412.5h30q163 245 274 411.5t172 258.5q-2 -92 -2 -258v-412h38z" />
    <glyph glyph-name="N" unicode="N" horiz-adv-x="904" 
d="M762 -8v725h-38v-416q0 -166 2 -258q-73 91 -208 258t-337 416h-39v-725h38v415t-2 259q73 -92 208.5 -259t336.5 -415h39z" />
    <glyph glyph-name="O" unicode="O" horiz-adv-x="940" 
d="M868 354q0 96 -33 166.5t-88.5 117.5t-127.5 70t-149 23t-149 -23t-127.5 -69.5t-88.5 -117.5t-33 -166v-1q0 -95 33 -166t88.5 -117.5t127.5 -69.5t149 -23t149 23t127.5 69.5t88.5 117.5t33 166zM830 355q0 -87 -30 -151.5t-79.5 -106.5t-115 -63t-135.5 -21
q-71 0 -136 21t-114.5 63t-79.5 106.5t-30 151.5t30 151.5t79.5 107t114.5 63.5t135 21h1q70 0 135.5 -21t115 -63.5t79.5 -107t30 -151.5z" />
    <glyph glyph-name="P" unicode="P" horiz-adv-x="811" 
d="M758 503q0 48 -21 87.5t-66.5 67.5t-117 43.5t-172.5 15.5h-239v-725h38v292h181q106 0 181.5 15t123.5 43t70 69t22 92zM720 503q0 -40 -17.5 -73.5t-59 -58t-111 -38.5t-173.5 -14h-179v363h209q94 0 158 -14.5t102 -39t54.5 -57t16.5 -68.5z" />
    <glyph glyph-name="Q" unicode="Q" horiz-adv-x="940" 
d="M868 354q0 96 -33 166.5t-88.5 117.5t-127.5 70t-149 23t-149 -23t-127.5 -69.5t-88.5 -117.5t-33 -166v-1q0 -95 33 -166t88.5 -117.5t127.5 -69.5t149 -23q17 0 34 1.5t34 3.5q14 -16 34.5 -35t49.5 -38q23 -16 53.5 -24t60 -10t54.5 -0.5t39 5.5l-17 31
q-12 -2 -33.5 -2.5t-46.5 2t-50 9t-43 18.5q-14 10 -29 22t-32 29q60 13 113 42.5t92.5 75t62 107t22.5 139.5zM830 355q0 -75 -22 -132.5t-60 -99t-89 -67.5t-108 -36l-35 40q-14 17 -40.5 41t-61.5 41q-30 14 -65 18t-68.5 2.5t-62 -6.5t-45.5 -9q-29 40 -46 91.5
t-17 116.5q0 87 30 151.5t79.5 107t114.5 63.5t135 21h1q70 0 135.5 -21t115 -63.5t79.5 -107t30 -151.5zM510 15q-10 -1 -20 -1.5t-20 -0.5q-78 0 -149 25.5t-122 77.5q18 4 43 8t52 5t54.5 -3t50.5 -15q30 -14 48 -30t41 -41z" />
    <glyph glyph-name="R" unicode="R" horiz-adv-x="809" 
d="M811 -8l-322 310q56 4 104 21t83 45t55 65t20 81q0 47 -20 84.5t-63.5 64t-111 40.5t-163.5 14h-246v-725h38v308h257l317 -308h52zM713 514q0 -35 -16.5 -67t-49.5 -57t-82 -40t-113 -15h-267v347h200q103 0 167 -14.5t100 -38t48.5 -54t12.5 -61.5z" />
    <glyph glyph-name="S" unicode="S" horiz-adv-x="790" 
d="M720 193q0 51 -24.5 84.5t-54.5 53.5q-18 12 -38.5 21t-47.5 17t-61.5 16t-80.5 18q-54 12 -90.5 20t-62 15t-42.5 13t-32 13q-28 14 -45 38.5t-17 56.5q0 64 65 100q35 20 89 29t116 9q110 0 169.5 -27t85.5 -73l33 18q-16 28 -40 49.5t-58.5 36.5t-81 22.5t-108.5 7.5
q-70 0 -126 -10t-98 -32q-45 -23 -64.5 -57.5t-19.5 -69.5q0 -50 22.5 -80.5t51.5 -45.5q13 -7 27.5 -13t38 -13t60.5 -16t95 -22q56 -12 93.5 -21t63.5 -16.5t42.5 -14.5t30.5 -14q13 -7 25.5 -17t22.5 -24t16.5 -32.5t6.5 -41.5q0 -36 -19.5 -67t-51.5 -52
q-41 -27 -95 -43.5t-126 -16.5q-113 0 -186 30t-111 77l-29 -24q46 -54 123 -85.5t202 -31.5q75 0 136 17.5t105 46.5q43 29 66.5 67.5t23.5 83.5z" />
    <glyph glyph-name="T" unicode="T" horiz-adv-x="686" 
d="M660 682v35h-622v-35h292v-690h38v690h292z" />
    <glyph glyph-name="U" unicode="U" horiz-adv-x="833" 
d="M701 287v430h-38v-428q0 -75 -11 -128t-39 -86t-76 -48t-122 -15q-72 0 -119 15t-75 48t-39.5 86t-11.5 128v428h-38v-430q0 -89 16.5 -148.5t51 -95t88 -50.5t127.5 -15q76 0 130 15t88.5 50.5t51 95t16.5 148.5z" />
    <glyph glyph-name="V" unicode="V" horiz-adv-x="753" 
d="M731 717h-40l-162 -350q-38 -82 -75 -162t-75 -166q-38 85 -75 165.5t-75 162.5l-162 350h-40l337 -725h30z" />
    <glyph glyph-name="W" unicode="W" horiz-adv-x="1210" 
d="M1187 717h-39l-136 -346q-32 -81 -63 -161.5t-63 -168.5q-32 86 -63.5 167.5t-63.5 162.5l-136 346h-31l-136 -347q-32 -81 -63.5 -161.5t-63.5 -168.5q-32 87 -63 168t-63 162l-136 347h-39l286 -725h30l136 347q32 82 63.5 162.5t63.5 164.5q32 -84 64 -165t64 -163
l136 -346h30z" />
    <glyph glyph-name="X" unicode="X" horiz-adv-x="806" 
d="M749 -8l-323 377l298 348h-48l-273 -322l-273 322h-48l298 -348l-323 -377h47l299 351l299 -351h47z" />
    <glyph glyph-name="Y" unicode="Y" horiz-adv-x="700" 
d="M681 717h-45l-146 -195q-35 -47 -70 -92.5t-70 -93.5q-35 47 -70 92t-70 93l-146 196h-45l312 -415v-310h38v310z" />
    <glyph glyph-name="Z" unicode="Z" horiz-adv-x="695" 
d="M629 -8v35h-502l484 660v30h-499v-35h451l-485 -660v-30h551z" />
    <glyph glyph-name="bracketleft" unicode="[" horiz-adv-x="479" 
d="M365 -164v33h-134v845h134v33h-170v-911h170z" />
    <glyph glyph-name="backslash" unicode="\" horiz-adv-x="724" 
d="M647 -20l-534 767h-40l533 -767h41z" />
    <glyph glyph-name="bracketright" unicode="]" horiz-adv-x="479" 
d="M284 -164v911h-170v-33h134v-845h-134v-33h170z" />
    <glyph glyph-name="asciicircum" unicode="^" horiz-adv-x="800" 
d="M634 309l-220 404h-26l-220 -404h36l197 363l197 -363h36z" />
    <glyph glyph-name="underscore" unicode="_" horiz-adv-x="800" 
d="M808 -290v46h-816v-46h816z" />
    <glyph glyph-name="grave" unicode="`" horiz-adv-x="500" 
d="M295 564l-159 129h-65l181 -129h43z" />
    <glyph glyph-name="a" unicode="a" horiz-adv-x="653" 
d="M578 -8v13q-11 12 -17.5 21t-9.5 18t-4 21t-1 31v280q0 86 -52.5 131t-173.5 45q-55 0 -90 -6.5l-35 -6.5l3 -34l26.5 7t94.5 7q55 0 91.5 -9t58.5 -27.5t31.5 -46.5t9.5 -65v-19q-110 -9 -194.5 -23t-142 -38t-87 -61.5t-29.5 -94.5q0 -28 11.5 -56t38.5 -50t72.5 -35.5
t114.5 -13.5q20 0 47.5 3.5t57 13t59.5 25t54 39.5q2 -19 8.5 -35t22.5 -34h35zM510 105q-24 -30 -54 -48t-60 -28t-56.5 -13t-43.5 -3q-63 0 -102.5 12t-62 30t-30.5 39.5t-8 41.5q0 46 26 77t77.5 51.5t130 33t183.5 21.5v-214z" />
    <glyph glyph-name="b" unicode="b" horiz-adv-x="734" 
d="M672 266q0 61 -21 113t-59 90.5t-93 60.5t-122 22q-63 0 -121.5 -20.5t-107.5 -65.5v269h-36v-743h36l-1 76q5 -4 10.5 -8t11.5 -9q10 -8 21.5 -16t25.5 -16q29 -16 68 -27.5t91 -11.5q74 0 130 24t93 64t55.5 91.5t18.5 106.5zM636 266q0 -50 -17 -95.5t-50 -80.5
t-81.5 -56t-111.5 -21q-50 0 -87.5 11.5t-65.5 28.5q-29 18 -47 33q-8 7 -15 13.5t-13 11.5v311q54 54 109.5 75.5t118.5 21.5q62 0 110.5 -20t81.5 -54t50.5 -80.5t17.5 -98.5z" />
    <glyph glyph-name="c" unicode="c" horiz-adv-x="673" 
d="M625 112l-33 16q-15 -24 -34.5 -45t-46.5 -36.5t-62.5 -24.5t-81.5 -9q-51 0 -99 14.5t-86 45t-61 78.5t-23 115q0 64 23 111.5t61 79t86.5 47t98.5 15.5q41 0 72.5 -6.5t56.5 -19t45 -31t37 -41.5l31 19q-20 27 -43.5 47.5t-53 35t-65 22t-80.5 7.5q-57 0 -112 -17.5
t-97.5 -52.5t-69 -89t-26.5 -127q0 -75 25.5 -129t68 -89t97.5 -51.5t114 -16.5q53 0 93.5 11t71.5 29t53.5 42t39.5 50z" />
    <glyph glyph-name="d" unicode="d" horiz-adv-x="734" 
d="M622 -8v743h-36v-269q-49 45 -107.5 65.5t-121.5 20.5q-68 0 -122.5 -22t-92.5 -60.5t-59 -90.5t-21 -113q0 -55 18.5 -106.5t55.5 -91.5t93 -64t130 -24q55 0 95 12.5t69 29.5q14 8 26 16.5t21 16.5q5 4 8.5 7t7.5 6l6 5q-2 -6 -3 -19t-2 -27t-1 -25v-10h36zM586 111
q-7 -6 -15 -13t-17 -15q-18 -15 -47 -33q-28 -15 -64 -26t-84 -11h-1q-63 0 -111.5 21t-81.5 56t-50 80.5t-17 95.5q0 52 17.5 98.5t50.5 80.5t81.5 54t110.5 20q63 0 118.5 -21.5t109.5 -75.5v-311z" />
    <glyph glyph-name="e" unicode="e" horiz-adv-x="682" 
d="M633 261q0 67 -21 118t-54 86q-41 43 -92.5 65t-108.5 22q-66 0 -117.5 -19.5t-89.5 -53.5q-42 -37 -65 -88.5t-23 -117.5q0 -73 22 -126t59 -89q43 -41 99.5 -59.5t114.5 -18.5q40 0 87 8t88 18t68.5 18l27.5 8l-2 32q-4 -2 -30.5 -10t-66 -17t-85.5 -16.5t-89 -7.5
q-42 0 -87 12.5t-82.5 42t-62 77t-25.5 116.5h535zM595 295h-497q1 46 20.5 86.5t53.5 71t81 48.5t104 18q51 0 93.5 -18.5t73.5 -50t49.5 -72t21.5 -83.5z" />
    <glyph glyph-name="f" unicode="f" horiz-adv-x="589" 
d="M645 722q-24 19 -45 29.5t-41 18.5q-31 12 -65 16.5t-73 4.5q-102 0 -164 -37q-81 -49 -81 -151v-63h-131v-34h131v-764h36v764h324v34h-324v62q0 45 18.5 76.5t47.5 48.5t65.5 24t77.5 7q72 0 126 -20q25 -8 42.5 -19.5t34.5 -28.5z" />
    <glyph glyph-name="g" unicode="g" horiz-adv-x="730" 
d="M623 16v524h-36l1 -72q-45 42 -98 63t-124 21q-89 0 -147.5 -29.5t-93.5 -73t-49 -94t-14 -93.5q0 -71 26 -124t68 -88t94.5 -52.5t106.5 -17.5q43 0 78 8t63 20t50 27.5t39 30.5v-50q0 -67 -14 -109t-42 -74q-17 -19 -38.5 -32t-45 -21.5t-47.5 -12t-46 -3.5
q-42 0 -76.5 7t-61.5 18q-37 17 -61.5 36t-42.5 40l-28 -23q30 -31 59.5 -51.5t57.5 -31.5q35 -15 72.5 -21.5t81.5 -6.5q63 0 115 21t87 59q36 39 51 88.5t15 116.5zM587 109q-18 -17 -39.5 -34.5t-49 -31t-61.5 -22t-77 -8.5q-53 0 -100.5 16.5t-83.5 48.5t-57 79t-21 108
v1q0 32 11 75.5t41 83t82.5 67t135.5 27.5q78 0 130.5 -26t88.5 -70v-314z" />
    <glyph glyph-name="h" unicode="h" horiz-adv-x="721" 
d="M621 -8v383q0 44 -11 73.5t-34 52.5q-49 51 -148 51q-34 0 -69 -6.5t-71 -21.5q-66 -25 -133 -75v286h-36v-743h36v417q13 11 30.5 23t37 23.5t38.5 21.5t36 16q72 26 129 26q48 0 78 -12t47 -30q21 -20 27.5 -47t6.5 -56v-382h36z" />
    <glyph glyph-name="i" unicode="i" horiz-adv-x="280" 
d="M165 639v96h-36v-96h36zM165 -8v548h-36v-548h36z" />
    <glyph glyph-name="j" unicode="j" horiz-adv-x="280" 
d="M158 639v96h-36v-96h36zM158 -45v585h-36v-586q0 -53 -9 -82t-27 -50q-15 -18 -35.5 -29t-42 -17.5t-43.5 -9t-41 -2.5q-22 0 -39 2t-30 5q-14 3 -23.5 6.5t-17.5 5.5q-26 10 -45.5 21.5t-44.5 30.5l-21 -29q28 -21 52 -33.5t48 -22.5q26 -9 54 -14t62 -5q131 0 192 69
q24 26 35.5 61t11.5 94z" />
    <glyph glyph-name="k" unicode="k" horiz-adv-x="633" 
d="M628 -8l-348 323l287 225h-56l-189 -149q-43 -34 -86.5 -68t-87.5 -69v131v350h-36v-743h36v220l104 80l325 -300h51z" />
    <glyph glyph-name="l" unicode="l" horiz-adv-x="280" 
d="M167 -8v743h-36v-743h36z" />
    <glyph glyph-name="m" unicode="m" horiz-adv-x="1045" 
d="M938 -8v408q0 32 -8.5 59.5t-28.5 47.5t-50.5 32.5t-74.5 12.5q-27 0 -54.5 -5.5t-58.5 -18.5q-29 -11 -60 -31t-65 -46q-4 15 -15 34t-28 32q-20 16 -48.5 25.5t-64.5 9.5q-25 0 -52 -5t-57 -18q-28 -11 -59.5 -29.5t-66.5 -46.5l1 87h-36v-548h36v420q32 29 64 49
t62 34q31 13 58 18.5t50 5.5q31 0 53.5 -7.5t39.5 -21.5q17 -15 24.5 -35t7.5 -47v-416h36v421q35 30 67.5 50t61.5 33q56 23 103 23q38 0 62 -10t38 -25q17 -20 22 -43t5 -46v-403h36z" />
    <glyph glyph-name="n" unicode="n" horiz-adv-x="721" 
d="M614 -8v383q0 44 -11 73.5t-33 52.5q-49 51 -149 51q-34 0 -68.5 -6.5t-71.5 -21.5q-69 -27 -139 -79q2 6 3 21.5t2 32t1 28.5v13h-36v-548h36v417q13 11 30.5 23t37 23.5t39 21.5t36.5 16q70 26 128 26q48 0 78 -12t47 -30q21 -20 27.5 -47t6.5 -56v-382h36z" />
    <glyph glyph-name="o" unicode="o" horiz-adv-x="739" 
d="M677 265v1q0 68 -24 121t-65.5 90t-97.5 56t-120 19t-120 -19t-98 -56t-66 -90t-24 -121q0 -57 19 -109t57 -91t96 -62.5t136 -23.5q80 0 138 24.5t95.5 64t55.5 91t18 105.5zM641 265q0 -50 -16.5 -95.5t-50 -80.5t-84.5 -56t-119 -21h-1q-69 0 -120.5 21t-85 56
t-50 80.5t-16.5 95.5q0 60 21 107t57.5 79.5t86 49.5t107.5 17q57 0 106.5 -17t86 -49.5t57.5 -79.5t21 -107z" />
    <glyph glyph-name="p" unicode="p" horiz-adv-x="734" 
d="M672 268q0 61 -20 110t-54 85q-84 89 -221 89q-42 0 -76 -7t-63 -21q-29 -13 -51.5 -28t-39.5 -31l1 75h-36v-796h36v323q22 -19 47.5 -35.5t48.5 -25.5q41 -18 75 -22t58 -4q73 0 128.5 24.5t90.5 62.5q41 44 58.5 96t17.5 105zM636 268q0 -58 -18.5 -102t-47.5 -76
q-38 -42 -88.5 -59.5t-104.5 -17.5q-38 0 -68.5 6.5t-53.5 16.5q-22 10 -48.5 27.5t-58.5 46.5v312q23 23 49.5 41.5t53.5 31.5q32 14 63.5 19t62.5 5q64 0 113 -21t81 -56t48.5 -80.5t16.5 -93.5z" />
    <glyph glyph-name="q" unicode="q" horiz-adv-x="734" 
d="M622 -256v796h-36l1 -75q-17 16 -39.5 31t-51.5 28q-29 14 -63 21t-76 7q-137 0 -221 -89q-34 -36 -54 -85t-20 -110q0 -53 17.5 -105t58.5 -96q35 -38 90.5 -62.5t128.5 -24.5q24 0 58 4t75 22q23 9 48.5 25.5t47.5 35.5v-323h36zM586 110q-32 -29 -58.5 -46.5
t-48.5 -27.5q-23 -10 -53.5 -16.5t-68.5 -6.5q-54 0 -104 18.5t-89 59.5q-30 30 -48 74.5t-18 102.5q0 48 16 93.5t49 80.5t81.5 56t112.5 21q31 0 62.5 -5t63.5 -19q27 -13 53.5 -31.5t49.5 -41.5v-312z" />
    <glyph glyph-name="r" unicode="r" horiz-adv-x="562" 
d="M526 494q-17 15 -30 24.5t-29 16.5q-21 10 -43.5 13.5t-45.5 3.5q-36 0 -68.5 -8.5t-61.5 -22.5q-27 -12 -51 -27.5t-50 -34.5l1 81h-36v-548h36v426q26 23 55.5 42t58.5 33q33 15 62 20.5t54 5.5q44 0 75 -14q12 -6 23.5 -14.5t25.5 -24.5z" />
    <glyph glyph-name="s" unicode="s" horiz-adv-x="652" 
d="M600 147q0 28 -12 54t-33 43q-15 12 -32.5 21t-42.5 16t-59.5 13.5t-82.5 14.5q-53 8 -86.5 14t-55 11.5t-35 12t-25.5 15.5q-17 14 -23.5 28t-6.5 30q0 24 13 41t37 29q32 17 77.5 22.5t93.5 5.5q89 0 143 -23.5t78 -59.5l28 24q-20 25 -41 40t-46 26q-37 17 -78 22
t-84 5q-59 0 -105.5 -7.5t-80.5 -23.5q-34 -15 -52.5 -40.5t-18.5 -60.5q0 -28 12.5 -49.5t35.5 -38.5q15 -11 31 -18.5t39.5 -13.5t57 -12t82.5 -13q49 -8 83 -14t56.5 -12.5t37.5 -14t27 -17.5q17 -15 24.5 -35t7.5 -38q0 -54 -51 -86q-35 -23 -84 -33.5t-98 -10.5
q-94 0 -159 25t-98 61l-26 -26q26 -23 52.5 -40.5t61.5 -28.5q36 -11 79 -18t94 -7q66 0 115.5 13t84.5 37q33 24 49 50.5t16 66.5z" />
    <glyph glyph-name="t" unicode="t" horiz-adv-x="676" 
d="M664 41l-16 32q-17 -9 -39 -19.5t-47.5 -19.5t-54 -15t-59.5 -6q-38 0 -77 6.5t-70.5 24.5t-51.5 50.5t-20 85.5v326h371v34h-371v162h-36v-162h-166v-34h166v-326q0 -65 25 -104.5t63 -60.5t82.5 -28t82.5 -7q35 0 66.5 6t59.5 15t51 19.5t41 20.5z" />
    <glyph glyph-name="u" unicode="u" horiz-adv-x="721" 
d="M609 -8v548h-36v-417q-38 -29 -75.5 -50t-66.5 -33q-34 -13 -67 -20t-62 -7q-51 0 -80 13t-45 28q-22 21 -28 47t-6 57v382h-36v-383q0 -44 11 -73.5t33 -52.5q49 -51 149 -51q69 0 140 29q35 13 67 32.5t72 45.5q-2 -5 -3 -20.5t-2 -32t-1 -29.5v-13h36z" />
    <glyph glyph-name="v" unicode="v" horiz-adv-x="668" 
d="M646 540h-39l-140 -262q-33 -63 -66 -124t-67 -124q-32 60 -65.5 121.5t-66.5 124.5l-140 264h-40l297 -548h29z" />
    <glyph glyph-name="w" unicode="w" horiz-adv-x="1244" 
d="M1222 540h-39l-140 -260q-33 -62 -66 -123.5t-67 -124.5q-34 63 -67 123.5t-67 123.5l-142 261h-27q-69 -128 -137 -254t-136 -254q-34 63 -67.5 124.5t-66.5 124.5l-139 259h-39l296 -548h31l141 261q33 61 65.5 121t64.5 123q33 -63 66 -123.5t67 -122.5l141 -259h32z
" />
    <glyph glyph-name="x" unicode="x" horiz-adv-x="627" 
d="M573 -8v12l-236 273l214 251v12h-35l-203 -237l-202 237h-36v-12l216 -251l-237 -273v-12h36l223 260l224 -260h36z" />
    <glyph glyph-name="y" unicode="y" horiz-adv-x="661" 
d="M638 540h-38l-107 -250q-52 -120 -105 -245q-38 60 -76.5 121.5t-76.5 122.5l-158 251h-41l335 -533l-50 -114q-23 -51 -57 -84q-24 -23 -55 -34t-69 -11q-20 0 -37.5 2.5t-31.5 7.5q-16 5 -29 12t-27 15l-18 -31q17 -10 31 -16.5t33 -12.5q16 -5 34.5 -7.5t44.5 -2.5
q51 0 86.5 15t60.5 38q26 23 41.5 49t24.5 49z" />
    <glyph glyph-name="z" unicode="z" horiz-adv-x="604" 
d="M576 -8v34h-470l454 483v31h-484v-34h434l-455 -483v-31h521z" />
    <glyph glyph-name="braceleft" unicode="{" horiz-adv-x="464" 
d="M375 -164v32q-71 3 -103 32q-13 12 -21 35t-8 63v157q0 40 -8.5 66t-25.5 44q-8 10 -18.5 16t-22.5 11q26 8 41 26q17 18 25.5 44t8.5 66v157q0 40 8.5 62t21.5 36q27 29 102 32v32q-45 -2 -76.5 -11.5t-52.5 -30.5q-39 -39 -39 -122v-144q0 -44 -7 -65.5t-20 -35.5
q-12 -13 -30.5 -20t-51.5 -11v-31q33 -4 51.5 -11t30.5 -20q13 -14 20 -35.5t7 -65.5v-144q0 -83 39 -122q21 -21 52.5 -30.5t76.5 -11.5z" />
    <glyph glyph-name="bar" unicode="|" horiz-adv-x="593" 
d="M314 -258v1016h-34v-1016h34z" />
    <glyph glyph-name="braceright" unicode="}" horiz-adv-x="464" 
d="M366 276v31q-33 4 -51.5 11t-30.5 20q-13 14 -20 35.5t-7 65.5v144q0 83 -39 122q-21 21 -52.5 30.5t-76.5 11.5v-32q75 -3 102 -32q13 -14 21.5 -36t8.5 -62v-157q0 -40 8.5 -66t25.5 -44q8 -10 18.5 -16t22.5 -11q-26 -8 -41 -26q-17 -18 -25.5 -44t-8.5 -66v-157
q0 -40 -8 -63t-21 -35q-32 -29 -103 -32v-32q45 2 76.5 11.5t52.5 30.5q39 39 39 122v144q0 44 7 65.5t20 35.5q12 13 30.5 20t51.5 11z" />
    <glyph glyph-name="asciitilde" unicode="~" horiz-adv-x="800" 
d="M685 279l-33 16q-15 -17 -39 -29t-69 -12q-22 0 -48 3t-58 12l-64 17q-20 5 -50.5 10.5t-69.5 5.5q-56 0 -88 -18t-51 -41l33 -16q15 17 39 29t69 12q22 0 48 -3t58 -12l64 -17q20 -5 50.5 -10.5t69.5 -5.5q56 0 88 18t51 41z" />
    <glyph glyph-name="quotesinglbase" unicode="&#x201a;" horiz-adv-x="589" 
d="M636 722q-24 19 -45 29.5t-41 18.5q-31 12 -65.5 16.5t-72.5 4.5q-102 0 -164 -37q-81 -49 -81 -151v-861h36v860q0 45 18.5 76.5t47.5 48.5t65.5 24t77.5 7q72 0 126 -20q25 -8 42.5 -19.5t34.5 -28.5z" />
    <glyph glyph-name="florin" unicode="&#x192;" 
d="M863 678q-37 18 -70 26.5t-79 8.5q-45 0 -80 -11.5t-64 -39.5q-26 -26 -47 -64.5t-42 -95.5l-21 -54h-158l-11 -33h158l-129 -349q-27 -76 -71 -114q-49 -41 -112 -41q-34 0 -61.5 8t-61.5 23l-18 -31q23 -11 41.5 -17t34.5 -10t30.5 -5t30.5 -1q45 0 79.5 12.5
t60.5 35.5q29 24 48.5 58.5t34.5 74.5l131 356h207l11 33h-207q8 22 17.5 48t21.5 51.5t26.5 48.5t32.5 41q20 20 48.5 31.5t68.5 11.5q21 0 38 -2t31.5 -6t27.5 -10t28 -13z" />
    <glyph glyph-name="quotedblbase" unicode="&#x201e;" horiz-adv-x="353" 
d="M288 85h-41l-34 -173h28zM165 85h-41l-34 -173h28z" />
    <glyph glyph-name="ellipsis" unicode="&#x2026;" horiz-adv-x="1200" 
d="M1018 -8v96h-36v-96h36zM618 -8v96h-36v-96h36zM218 -8v96h-36v-96h36z" />
    <glyph glyph-name="dagger" unicode="&#x2020;" horiz-adv-x="682" 
d="M544 518v37l-187 -3l4 179h-40l4 -179l-187 3v-37l187 3q-1 -35 -2 -69.5t-1 -69.5q1 -121 2.5 -242.5t3.5 -249.5h26q2 128 3.5 249.5t2.5 242.5q0 35 -1 69.5t-2 69.5z" />
    <glyph glyph-name="daggerdbl" unicode="&#x2021;" horiz-adv-x="682" 
d="M544 186v37l-187 -3q1 41 2 81.5t1 80.5q0 35 -1 69.5t-2 69.5l187 -3v37l-187 -3l4 179h-40l4 -179l-187 3v-37l187 3q-1 -35 -2 -69.5t-1 -69.5q0 -40 1 -80.5t2 -81.5l-187 3v-37l187 3l-4 -281h40l-4 281z" />
    <glyph glyph-name="circumflex" unicode="&#x2c6;" horiz-adv-x="500" 
d="M417 583l-164 108h-6l-164 -108h47l120 65l120 -65h47z" />
    <glyph glyph-name="perthousand" unicode="&#x2030;" horiz-adv-x="1475" 
d="M1398 165v1q0 40 -13.5 74.5t-38 59.5t-58.5 39.5t-76 14.5t-76 -14.5t-58.5 -39.5t-38 -59.5t-13.5 -74.5t13.5 -74.5t38 -59.5t58.5 -39.5t76 -14.5t76 14.5t58.5 39.5t38 59t13.5 74zM1363 165q0 -35 -11 -63.5t-30.5 -48.5t-47 -31.5t-60.5 -11.5h-1
q-34 0 -61.5 11.5t-47 31.5t-30.5 48.5t-11 63.5q0 34 11 63t30.5 49t47 31.5t61.5 11.5t61.5 -11.5t47 -31.5t30.5 -49t11 -63zM939 166v1q0 40 -13.5 74.5t-38 59.5t-58.5 39.5t-76 14.5t-76 -14.5t-58.5 -39.5t-38 -59.5t-13.5 -74.5t13.5 -74.5t38 -59.5t58.5 -39.5
t76 -14.5t76 14.5t58.5 39.5t38 59t13.5 74zM903 165q0 -35 -11 -63.5t-30.5 -48.5t-47 -31.5t-60.5 -11.5h-1q-34 0 -61.5 11.5t-47 31.5t-30.5 48.5t-11 63.5q0 34 11 63t30.5 49t47 31.5t61.5 11.5t61.5 -11.5t47 -31.5t30.5 -49t11 -63zM809 724h-42l-560 -743h43z
M450 538v1q0 40 -13.5 74.5t-38 59.5t-58.5 39.5t-76 14.5t-76 -14.5t-58.5 -39.5t-38 -59.5t-13.5 -74.5t13.5 -74.5t38 -59.5t58.5 -39.5t76 -14.5t76 14.5t58.5 39.5t38 59t13.5 74zM414 538q0 -35 -11 -63.5t-30.5 -48.5t-47 -31.5t-60.5 -11.5h-1q-34 0 -61.5 11.5
t-47 31.5t-30.5 48.5t-11 63.5q0 34 11 63t30.5 49t47 31.5t61.5 11.5t61.5 -11.5t47 -31.5t30.5 -49t11 -63z" />
    <glyph glyph-name="Scaron" unicode="&#x160;" horiz-adv-x="790" 
d="M582 830h-56l-131 -44q1 0 -19.5 7t-45.5 15t-45.5 15l-20.5 7h-56l184 -83h6zM720 193q0 51 -24.5 84.5t-54.5 53.5q-18 12 -38.5 21t-47.5 17t-61.5 16t-80.5 18q-54 12 -90.5 20t-62 15t-42.5 13t-32 13q-28 14 -45 38.5t-17 56.5q0 64 65 100q35 20 89 29t116 9
q110 0 169.5 -27t85.5 -73l33 18q-16 28 -40 49.5t-58.5 36.5t-81 22.5t-108.5 7.5q-70 0 -126 -10t-98 -32q-45 -23 -64.5 -57.5t-19.5 -69.5q0 -50 22.5 -80.5t51.5 -45.5q13 -7 27.5 -13t38 -13t60.5 -16t95 -22q56 -12 93.5 -21t63.5 -16.5t42.5 -14.5t30.5 -14
q13 -7 25.5 -17t22.5 -24t16.5 -32.5t6.5 -41.5q0 -36 -19.5 -67t-51.5 -52q-41 -27 -95 -43.5t-126 -16.5q-113 0 -186 30t-111 77l-29 -24q46 -54 123 -85.5t202 -31.5q75 0 136 17.5t105 46.5q43 29 66.5 67.5t23.5 83.5z" />
    <glyph glyph-name="guilsinglleft" unicode="&#x2039;" horiz-adv-x="382" 
d="M285 42v44l-163 163l163 163v44l-210 -203v-8z" />
    <glyph glyph-name="OE" unicode="&#x152;" horiz-adv-x="1231" 
d="M1149 -8v35h-457v326h360v35h-360v294h443v35h-463q-16 4 -56 9t-116 5q-98 0 -177 -26t-134.5 -74.5t-86 -118.5t-30.5 -158t30.5 -157.5t86 -118t134.5 -74.5t177 -26q80 0 119 5.5t53 8.5h477zM654 24q0 -7 -41 -9.5t-112 -2.5q-89 0 -161 23t-123 67t-79 107.5
t-28 144.5t28 145t79 108t123 67t161 23q71 0 112 -2.5t41 -9.5v-661z" />
    <glyph glyph-name="quoteleft" unicode="&#x2018;" horiz-adv-x="230" 
d="M140 544l-34 173h-41l47 -173h28z" />
    <glyph glyph-name="quoteright" unicode="&#x2019;" horiz-adv-x="230" 
d="M165 717h-41l-34 -173h28z" />
    <glyph glyph-name="quotedblleft" unicode="&#x201c;" horiz-adv-x="353" 
d="M263 544l-34 173h-41l47 -173h28zM140 544l-34 173h-41l47 -173h28z" />
    <glyph glyph-name="quotedblright" unicode="&#x201d;" horiz-adv-x="353" 
d="M288 717h-41l-34 -173h28zM165 717h-41l-34 -173h28z" />
    <glyph glyph-name="bullet" unicode="&#x2022;" horiz-adv-x="570" 
d="M355 341q0 29 -20.5 49.5t-49.5 20.5t-49.5 -20.5t-20.5 -49.5t20.5 -49.5t49.5 -20.5t49.5 20.5t20.5 49.5z" />
    <glyph glyph-name="endash" unicode="&#x2013;" horiz-adv-x="600" 
d="M578 234v32h-556v-32h556z" />
    <glyph glyph-name="emdash" unicode="&#x2014;" horiz-adv-x="1200" 
d="M1178 234v32h-1156v-32h1156z" />
    <glyph glyph-name="tilde" unicode="&#x2dc;" horiz-adv-x="500" 
d="M399 659l-23 23q-16 -17 -29 -22t-32 -5q-14 0 -28.5 3t-22.5 5l-20 6q-17 5 -31.5 6.5t-25.5 1.5q-23 0 -44.5 -7.5t-39.5 -30.5l23 -23q16 17 29 22t32 5q14 0 28.5 -3t22.5 -5l20 -6q17 -5 31.5 -6.5t25.5 -1.5q23 0 44.5 7.5t39.5 30.5z" />
    <glyph glyph-name="trademark" unicode="&#x2122;" horiz-adv-x="1170" 
d="M1013 345v372h-40l-122 -173q-28 -41 -56.5 -81t-57.5 -82q-28 41 -56 81t-57 82l-122 173h-39v-372h32v179v149q26 -39 52.5 -77t52.5 -76l123 -175h28l122 173q26 38 53 76.5t54 79.5q-1 -38 -1 -76v-74v-179h34zM412 686v31h-386v-31h176v-341h34v341h176z" />
    <glyph glyph-name="scaron" unicode="&#x161;" horiz-adv-x="652" 
d="M493 686h-47l-120 -65l-120 65h-47l164 -108h6zM600 147q0 28 -12 54t-33 43q-15 12 -32.5 21t-42.5 16t-59.5 13.5t-82.5 14.5q-53 8 -86.5 14t-55 11.5t-35 12t-25.5 15.5q-17 14 -23.5 28t-6.5 30q0 24 13 41t37 29q32 17 77.5 22.5t93.5 5.5q89 0 143 -23.5t78 -59.5
l28 24q-20 25 -41 40t-46 26q-37 17 -78 22t-84 5q-59 0 -105.5 -7.5t-80.5 -23.5q-34 -15 -52.5 -40.5t-18.5 -60.5q0 -28 12.5 -49.5t35.5 -38.5q15 -11 31 -18.5t39.5 -13.5t57 -12t82.5 -13q49 -8 83 -14t56.5 -12.5t37.5 -14t27 -17.5q17 -15 24.5 -35t7.5 -38
q0 -54 -51 -86q-35 -23 -84 -33.5t-98 -10.5q-94 0 -159 25t-98 61l-26 -26q26 -23 52.5 -40.5t61.5 -28.5q36 -11 79 -18t94 -7q66 0 115.5 13t84.5 37q33 24 49 50.5t16 66.5z" />
    <glyph glyph-name="guilsinglright" unicode="&#x203a;" horiz-adv-x="382" 
d="M307 245v8l-210 203v-44l163 -163l-163 -163v-44z" />
    <glyph glyph-name="oe" unicode="&#x153;" horiz-adv-x="1232" 
d="M1183 261q0 67 -21 118t-54 86q-41 43 -92.5 65t-108.5 22q-59 0 -105.5 -15.5t-81.5 -41.5t-58 -59t-34 -67q-8 25 -26 57t-50 60t-81 47t-119 19q-61 0 -114 -20t-92 -57t-61.5 -90t-22.5 -119q0 -62 21 -114.5t59 -90.5t91.5 -59.5t118.5 -21.5q61 0 108.5 15t81.5 40
t55.5 58t32.5 69q18 -55 50.5 -90t71.5 -55.5t79.5 -28.5t75.5 -8q40 0 87.5 8.5t88.5 18t68.5 18l27.5 8.5l-7 34q-3 -1 -29.5 -9.5t-65 -18.5t-84.5 -18t-88 -8q-41 0 -86 12.5t-82.5 41.5t-63 76.5t-26.5 117.5h536zM1145 294h-498q1 38 17.5 78t49 72.5t80 53
t112.5 20.5q51 0 93.5 -18.5t74 -50t50 -72t21.5 -83.5zM611 266q0 -64 -19 -111.5t-53.5 -79t-82 -47t-103.5 -15.5q-57 0 -104 18.5t-80.5 52t-52 80t-18.5 101.5v1q0 67 23 115t59.5 78.5t82 45t90.5 14.5q57 0 104.5 -17.5t81.5 -50.5t53 -80t19 -105z" />
    <glyph glyph-name="Ydieresis" unicode="&#x178;" horiz-adv-x="700" 
d="M483 719v88h-34v-88h34zM251 719v88h-34v-88h34zM681 717h-45l-146 -195q-35 -47 -70 -92.5t-70 -93.5q-35 47 -70 92t-70 93l-146 196h-45l312 -415v-310h38v310z" />
    <glyph glyph-name="exclamdown" unicode="&#xa1;" horiz-adv-x="320" 
d="M178 399v96h-36v-96h36zM178 -230l-3 569h-30l-3 -569h36z" />
    <glyph glyph-name="cent" unicode="&#xa2;" 
d="M687 183l-29 20q-37 -51 -91.5 -79t-132.5 -30v507q70 -2 126 -29.5t85 -65.5l30 20q-87 102 -241 108v66h-34v-68q-65 -5 -116.5 -27.5t-88 -60t-56 -87.5t-19.5 -109q0 -63 20 -114t56.5 -88t88.5 -59t115 -26v-69h34v69q89 2 149 33.5t104 88.5zM400 96
q-54 5 -99 23.5t-77.5 50.5t-50 76.5t-17.5 101.5q0 106 64.5 173t179.5 78v-503z" />
    <glyph glyph-name="sterling" unicode="&#xa3;" 
d="M757 42l-25 23q-32 -26 -70 -36t-101 -10q-41 0 -72 3.5t-61 7.5t-62 7.5t-73 3.5q-16 0 -27.5 -0.5t-22.5 -1.5q36 29 54.5 67t18.5 89q0 42 -8.5 76.5t-19.5 65.5h268v33h-282q-14 37 -26 71t-12 75q0 36 11.5 66t36.5 51t64 32.5t94 11.5q66 0 110.5 -19t74.5 -63
l28 17q-36 56 -90.5 77t-124.5 21q-61 0 -105.5 -14.5t-74 -40t-44 -60.5t-14.5 -76q0 -42 10 -76.5t24 -72.5h-117v-33h131q13 -32 22.5 -66t9.5 -76q0 -60 -32.5 -102.5t-92.5 -73.5l15 -28q28 10 54 13.5t67 3.5q36 0 69.5 -3.5t66 -7.5t65 -7.5t67.5 -3.5
q80 0 124.5 15.5t71.5 40.5z" />
    <glyph glyph-name="currency" unicode="&#x20ac;" horiz-adv-x="844" 
d="M822 153l-30 21q-17 -24 -43.5 -52.5t-62 -53t-81 -40.5t-100.5 -16q-61 0 -118.5 16.5t-105 50t-80.5 84.5t-45 120h601v32h-605q-1 10 -1.5 19.5t-0.5 19.5q0 15 1 29t3 28h603v32h-598q15 67 50 115.5t83 79t104.5 45t113.5 14.5q48 0 87 -11.5t70.5 -31t56 -45.5
t43.5 -56l32 19q-21 33 -49.5 62t-64.5 50.5t-79.5 34t-95.5 12.5q-88 0 -160 -26.5t-125 -75.5q-39 -36 -65.5 -82.5t-38.5 -103.5h-105v-32h100q-2 -14 -3 -28t-1 -28q0 -11 0.5 -20.5t1.5 -19.5h-98v-32h102q11 -63 39 -114.5t73 -93.5q44 -41 114.5 -69t160.5 -28
q61 0 110 16t88 41.5t68.5 56.5t50.5 61z" />
    <glyph glyph-name="yen" unicode="&#xa5;" horiz-adv-x="846" 
d="M740 700h-45l-140 -187l-66 -88t-66 -92q-32 47 -65.5 91t-67.5 89l-139 187h-45l299 -398v-9h-277v-33h277v-85h-277v-33h277v-150h36v150h275v33h-275v85h275v33h-275v9z" />
    <glyph glyph-name="brokenbar" unicode="&#xa6;" horiz-adv-x="593" 
d="M314 317v366h-34v-366h34zM314 -183v366h-34v-366h34z" />
    <glyph glyph-name="section" unicode="&#xa7;" horiz-adv-x="778" 
d="M689 267q0 46 -19 75.5t-53 50t-81 33.5t-104 26q-58 13 -107.5 25.5t-71.5 22.5q-31 14 -45.5 34.5t-14.5 50.5q0 35 21 57t53.5 34.5t71.5 17t75 4.5q31 0 62.5 -4t58.5 -14t48.5 -28t32.5 -45l33 16q-15 32 -40.5 53t-57 33t-67 17t-71.5 5q-51 0 -97.5 -7t-84.5 -26
q-29 -14 -51.5 -42t-22.5 -70q0 -28 11 -54t37 -45q-13 -6 -29 -15.5t-30 -23.5t-23.5 -34t-9.5 -47q0 -39 18.5 -65t52 -44t79.5 -30t101 -23q29 -6 58.5 -12.5t56.5 -14.5t49.5 -17.5t36.5 -20.5q23 -17 33.5 -35.5t10.5 -47.5q0 -34 -17 -61.5t-46 -46.5
q-67 -44 -166 -44q-47 0 -84 7.5t-65 19.5t-48.5 28.5t-35.5 34.5l-28 -22q12 -15 32.5 -32.5t52 -33t75 -25.5t101.5 -10q54 0 102.5 12t90.5 43q31 22 51.5 54t20.5 73q0 34 -10.5 54.5t-22.5 34.5q34 23 55.5 56t21.5 68zM653 269q0 -31 -18 -59t-45 -45q-23 17 -53 29
t-64 21q-35 9 -73.5 16.5t-75.5 15.5q-38 9 -70 18.5t-55 23t-36.5 31.5t-13.5 43v1q0 39 23 64.5t69 39.5q79 -29 153.5 -44t133.5 -32t92 -44t33 -79z" />
    <glyph glyph-name="dieresis" unicode="&#xa8;" horiz-adv-x="500" 
d="M381 604v93h-34v-93h34zM153 604v93h-34v-93h34z" />
    <glyph glyph-name="copyright" unicode="&#xa9;" horiz-adv-x="1008" 
d="M879 355q0 78 -29.5 146.5t-80.5 119.5t-119.5 80.5t-145.5 29.5h-1q-78 0 -146.5 -29.5t-119.5 -80.5t-80.5 -119.5t-29.5 -146.5t29.5 -146.5t80.5 -120t119.5 -81t146.5 -29.5t146.5 29.5t119.5 81t80.5 120t29.5 146.5zM846 355q0 -71 -27 -134t-73.5 -109.5
t-108.5 -73.5t-133 -27t-133 27t-108.5 73.5t-73.5 109.5t-27 134t27 133.5t73 109t108 73.5t133 27h1q71 0 133 -27t108.5 -73.5t73.5 -109t27 -133.5zM680 183l-23 25q-13 -14 -29.5 -26t-33.5 -19q-15 -5 -33.5 -9.5t-43.5 -4.5q-35 0 -70 12t-66 44t-42.5 70.5
t-11.5 81.5q0 57 15.5 92t37.5 56q30 31 64.5 44.5t72.5 13.5q12 0 21 -0.5t16.5 -2t15.5 -4t18 -5.5q27 -8 60 -38l23 25q-20 18 -35 27t-34 16q-20 8 -40.5 11.5t-42.5 3.5q-50 0 -90.5 -17.5t-72.5 -47.5q-32 -31 -48.5 -75.5t-16.5 -98.5q0 -56 17 -100t48 -76
q32 -31 72.5 -48t90.5 -17q24 0 48.5 5t38.5 12q20 8 38 19t36 31z" />
    <glyph glyph-name="ordfeminine" unicode="&#xaa;" horiz-adv-x="455" 
d="M394 376v14q-12 9 -17 16.5t-5 19.5v142v27t-1 25q-3 28 -14 47q-14 22 -43 34t-82 12q-39 0 -63 -3.5t-38 -8t-19.5 -9t-6.5 -6.5v-37q2 1 14.5 8t43 15.5t72.5 8.5t62 -9.5t29 -20.5q7 -10 11 -26q1 -7 1 -14v-11v-5q-71 -6 -121.5 -15.5t-83 -25t-48 -38t-15.5 -54.5
q0 -30 15 -48.5t36.5 -28t46 -13t43.5 -3.5q29 0 64.5 9.5t64.5 32.5q2 -9 6.5 -17.5t15.5 -17.5h32zM338 450q-55 -49 -134 -49q-16 0 -33.5 2.5t-32.5 9.5t-24.5 19.5t-9.5 31.5q0 20 11.5 36t38.5 28.5t72 21t112 13.5v-113z" />
    <glyph glyph-name="guillemotleft" unicode="&#xab;" horiz-adv-x="546" 
d="M449 42v44l-163 163l163 163v44l-210 -203v-8zM285 42v44l-163 163l163 163v44l-210 -203v-8z" />
    <glyph glyph-name="logicalnot" unicode="&#xac;" horiz-adv-x="800" 
d="M664 151v182h-528v-32h494v-150h34z" />
    <glyph glyph-name="registered" unicode="&#xae;" horiz-adv-x="1008" 
d="M880 355q0 78 -29.5 146.5t-80.5 119.5t-119.5 80.5t-145.5 29.5h-1q-78 0 -146.5 -29.5t-119.5 -80.5t-80.5 -119.5t-29.5 -146.5t29.5 -146.5t80.5 -120t119.5 -81t146.5 -29.5t146.5 29.5t119.5 81t80.5 120t29.5 146.5zM847 355q0 -71 -27 -134t-73.5 -109.5
t-108.5 -73.5t-133 -27t-133 27t-108.5 73.5t-73.5 109.5t-27 134t27 133.5t73 109t108 73.5t133 27h1q71 0 133 -27t108.5 -73.5t73.5 -109t27 -133.5zM732 118l-183 214q17 3 38.5 10.5t40 23t31.5 40t13 60.5q0 26 -9.5 50t-33.5 43q-23 19 -62 29.5t-97 10.5h-102v-481
h36v211h101l181 -211h46zM636 462q0 -43 -32 -71.5t-98 -28.5h-102v204h66q37 0 67.5 -5t52.5 -17t34 -32t12 -50z" />
    <glyph glyph-name="macron" unicode="&#xaf;" horiz-adv-x="500" 
d="M388 632v34h-276v-34h276z" />
    <glyph glyph-name="degree" unicode="&#xb0;" horiz-adv-x="506" 
d="M384 582q0 27 -10.5 51t-28 41.5t-41 28t-50.5 10.5h-1q-27 0 -51 -10.5t-41.5 -28t-28 -41.5t-10.5 -51t10.5 -51t28 -41.5t41.5 -28t51 -10.5t51 10.5t41.5 28t28 41.5t10.5 51zM349 582q0 -40 -27.5 -67.5t-67.5 -27.5t-67.5 27.5t-27.5 67.5q0 20 7.5 37.5t20 30
t29.5 20t37 7.5h1q40 0 67.5 -27.5t27.5 -67.5z" />
    <glyph glyph-name="plusminus" unicode="&#xb1;" horiz-adv-x="800" 
d="M664 237v32h-247v185h-34v-185h-247v-32h247v-181h34v181h247zM664 -8v32h-528v-32h528z" />
    <glyph glyph-name="twosuperior" unicode="&#xb2;" horiz-adv-x="543" 
d="M457 275v34h-339q15 28 36 49.5t46 38.5t52.5 30.5t55.5 26.5q30 13 56 26.5t46 30t31.5 37t11.5 47.5q0 30 -13.5 52t-37.5 36.5t-57 22t-72 7.5q-82 0 -124 -29.5t-56 -76.5l35 -6q4 13 12 27t24 25.5t41.5 19t63.5 7.5q79 0 114.5 -24.5t35.5 -59.5q0 -23 -10.5 -39
t-30.5 -30q-10 -8 -21 -14t-24 -13q-13 -6 -27 -12t-28 -13q-29 -13 -59 -28.5t-57 -37.5t-49.5 -51t-35.5 -69l17 -14h363z" />
    <glyph glyph-name="threesuperior" unicode="&#xb3;" horiz-adv-x="543" 
d="M451 390q0 28 -9.5 48t-25.5 33.5t-35.5 22t-38.5 12.5q41 11 63.5 35t22.5 68q0 14 -5.5 32t-22 34t-48 27t-83.5 11q-69 0 -114 -22.5t-59 -81.5l34 -7q13 44 44.5 61t95.5 17q43 0 68 -9t37.5 -21t15.5 -25t3 -21q0 -35 -40 -59.5t-128 -24.5v-31q92 0 141.5 -23
t49.5 -71q0 -42 -33 -69t-108 -27q-72 0 -109 22t-58 68l-33 -10q26 -61 73 -87t120 -26q91 0 136.5 33.5t45.5 90.5z" />
    <glyph glyph-name="acute" unicode="&#xb4;" horiz-adv-x="500" 
d="M429 693h-65l-159 -129h43z" />
    <glyph glyph-name="mu" unicode="&#xb5;" horiz-adv-x="721" 
d="M609 -8v548h-36v-417q-38 -29 -75.5 -50t-66.5 -33q-34 -13 -67 -20t-62 -7q-51 0 -80 12.5t-45 29.5q-22 21 -28 47t-6 56v382h-36v-796h36v297q2 -3 4 -5.5t4 -4.5q24 -24 61.5 -37.5t87.5 -13.5q69 0 140 29q35 13 67 32.5t72 45.5q-2 -5 -3 -20.5t-2 -32t-1 -29.5
v-13h36z" />
    <glyph glyph-name="paragraph" unicode="&#xb6;" horiz-adv-x="654" 
d="M499 -240v957h-219q-54 0 -97.5 -14.5t-72.5 -41.5q-30 -27 -46.5 -64.5t-16.5 -82.5q0 -58 22 -97t57 -63q33 -23 75.5 -32.5t89.5 -10.5v-551h34v924h140v-924h34z" />
    <glyph glyph-name="periodcentered" unicode="&#xb7;" horiz-adv-x="260" 
d="M156 253q0 11 -7 18.5t-18 7.5h-1q-11 0 -18.5 -7.5t-7.5 -18.5t7.5 -18.5t18.5 -7.5t18.5 7.5t7.5 18.5z" />
    <glyph glyph-name="periodcentered" unicode="&#x2219;" horiz-adv-x="260" 
d="M156 253q0 11 -7 18.5t-18 7.5h-1q-11 0 -18.5 -7.5t-7.5 -18.5t7.5 -18.5t18.5 -7.5t18.5 7.5t7.5 18.5z" />
    <glyph glyph-name="cedilla" unicode="&#xb8;" horiz-adv-x="500" 
d="M356 -112q0 20 -10 33t-25 20.5t-33 10t-34 1.5l44 55h-42l-62 -80l24 -13q11 3 29 5.5t34.5 0.5t28.5 -9.5t12 -23.5q0 -11 -7.5 -18t-19.5 -11.5t-26.5 -6.5t-27.5 -2q-25 0 -45.5 5t-39.5 14l-19 -27q19 -10 45 -17.5t59 -7.5q24 0 44.5 4.5t36.5 13t25 22t9 31.5z
" />
    <glyph glyph-name="onesuperior" unicode="&#xb9;" horiz-adv-x="543" 
d="M310 275v434h-19l-127 -57l12 -30l100 46v-393h34z" />
    <glyph glyph-name="ordmasculine" unicode="&#xba;" horiz-adv-x="464" 
d="M421 541q0 39 -14 71t-39 54.5t-59.5 34.5t-75.5 12t-75.5 -12t-59 -34.5t-38.5 -54t-14 -70.5v-1q0 -39 14 -71t38.5 -54.5t59 -34.5t75.5 -12t75.5 12t59.5 34.5t39 54.5t14 71zM387 542q0 -63 -41 -101.5t-113 -38.5q-71 0 -112 38.5t-41 101.5t41 101.5t111 38.5h1
q72 0 113 -38.5t41 -101.5z" />
    <glyph glyph-name="guillemotright" unicode="&#xbb;" horiz-adv-x="546" 
d="M471 245v8l-210 203v-44l163 -163l-163 -163v-44zM307 245v8l-210 203v-44l163 -163l-163 -163v-44z" />
    <glyph glyph-name="onequarter" unicode="&#xbc;" horiz-adv-x="1161" 
d="M1028 109v32h-94v284h-29l-278 -294v-22h273v-117h34v117h94zM901 374q-1 -29 -1 -58v-59v-116h-219l105 112q29 30 57.5 60.5t57.5 60.5zM848 713h-43l-622 -733h44zM310 275v434h-19l-127 -57l12 -30l100 46v-393h34z" />
    <glyph glyph-name="onehalf" unicode="&#xbd;" horiz-adv-x="1161" 
d="M1039 -8v34h-339q15 28 36 49.5t46 38.5t52.5 30.5t55.5 26.5q30 13 56 26.5t46 30t31.5 37t11.5 47.5q0 30 -13.5 52t-37.5 36.5t-57 22t-72 7.5q-82 0 -124 -29.5t-56 -76.5l35 -6q4 13 12 27t24 25.5t41.5 19t63.5 7.5q79 0 114.5 -24.5t35.5 -59.5q0 -23 -10.5 -39
t-30.5 -30q-10 -8 -21 -14t-24 -13q-13 -6 -27 -12t-28 -13q-29 -13 -59 -28.5t-57 -37.5t-49.5 -51t-35.5 -69l17 -14h363zM825 713h-43l-622 -733h44zM291 275v434h-18l-118 -35l10 -31l92 27v-395h34z" />
    <glyph glyph-name="threequarters" unicode="&#xbe;" horiz-adv-x="1246" 
d="M1113 109v32h-94v284h-29l-278 -294v-22h273v-117h34v117h94zM986 374q-1 -29 -1 -58v-59v-116h-219l105 112q29 30 57.5 60.5t57.5 60.5zM949 713h-43l-622 -733h44zM451 390q0 28 -9.5 48t-25.5 33.5t-35.5 22t-38.5 12.5q41 11 63.5 35t22.5 68q0 14 -5.5 32t-22 34
t-48 27t-83.5 11q-69 0 -114 -22.5t-59 -81.5l34 -7q13 44 44.5 61t95.5 17q43 0 68 -9t37.5 -21t15.5 -25t3 -21q0 -35 -40 -59.5t-128 -24.5v-31q92 0 141.5 -23t49.5 -71q0 -42 -33 -69t-108 -27q-72 0 -109 22t-58 68l-33 -10q26 -61 73 -87t120 -26q91 0 136.5 33.5
t45.5 90.5z" />
    <glyph glyph-name="questiondown" unicode="&#xbf;" horiz-adv-x="587" 
d="M338 399v96h-36v-96h36zM586 -92l-33 13q-28 -57 -91.5 -90.5t-173.5 -33.5q-50 0 -94 7t-77 23t-52.5 42t-19.5 64q0 26 6.5 47t21 38.5t38 33.5t57.5 33q53 25 87 49t53.5 52.5t25.5 65t4 87.5h-31q1 -41 -3.5 -72t-20.5 -56.5t-45.5 -47.5t-77.5 -45
q-42 -20 -70.5 -39t-46.5 -40.5t-26 -46.5t-8 -57q0 -49 22.5 -82t60.5 -52.5t88 -28t104 -8.5q67 0 117 10.5t86 29.5t60 45.5t39 58.5z" />
    <glyph glyph-name="Agrave" unicode="&#xc0;" horiz-adv-x="691" 
d="M444 729l-173 106h-89l208 -106h54zM678 -8l-321 725h-24l-320 -725h40l110 247h363l111 -247h41zM511 274h-332l85 198q20 47 40.5 93t40.5 96q21 -51 42 -98t41 -95z" />
    <glyph glyph-name="Aacute" unicode="&#xc1;" horiz-adv-x="691" 
d="M514 835h-89l-173 -106h54zM678 -8l-321 725h-24l-320 -725h40l110 247h363l111 -247h41zM511 274h-332l85 198q20 47 40.5 93t40.5 96q21 -51 42 -98t41 -95z" />
    <glyph glyph-name="Acircumflex" unicode="&#xc2;" horiz-adv-x="691" 
d="M533 751l-184 83h-6l-184 -83h56l131 44q-1 0 12.5 -4.5t32.5 -11t39 -13t33 -11t14 -4.5h56zM678 -8l-321 725h-24l-320 -725h40l110 247h363l111 -247h41zM511 274h-332l85 198q20 47 40.5 93t40.5 96q21 -51 42 -98t41 -95z" />
    <glyph glyph-name="Atilde" unicode="&#xc3;" horiz-adv-x="691" 
d="M508 808l-23 23q-17 -19 -33.5 -25t-37.5 -6q-16 0 -31 2.5t-23 5.5l-22 7q-18 5 -34 7t-29 2q-26 0 -49 -8.5t-43 -32.5l24 -23q16 20 31.5 25t36.5 5q16 0 31 -2.5t23 -5.5l22 -7q18 -6 34.5 -7.5t28.5 -1.5q27 0 50.5 9t43.5 33zM678 -8l-321 725h-24l-320 -725h40
l110 247h363l111 -247h41zM511 274h-332l85 198q20 47 40.5 93t40.5 96q21 -51 42 -98t41 -95z" />
    <glyph glyph-name="Adieresis" unicode="&#xc4;" horiz-adv-x="691" 
d="M479 739v88h-34v-88h34zM247 739v88h-34v-88h34zM678 -8l-321 725h-24l-320 -725h40l110 247h363l111 -247h41zM511 274h-332l85 198q20 47 40.5 93t40.5 96q21 -51 42 -98t41 -95z" />
    <glyph glyph-name="Aring" unicode="&#xc5;" horiz-adv-x="691" 
d="M678 -8l-316 715q26 4 47.5 21t21.5 48q0 18 -7.5 31t-20 21.5t-27.5 13t-30 4.5t-30 -4.5t-27.5 -13t-20 -21.5t-7.5 -31q0 -30 21 -47t47 -22l-316 -715h40l110 247h363l111 -247h41zM395 776q0 -14 -11.5 -25.5t-37.5 -11.5h-1q-28 0 -39 11.5t-11 25.5q0 17 13.5 27
t36.5 10t36.5 -10t13.5 -27zM511 274h-332l85 198q20 47 40.5 93t40.5 96q21 -51 42 -98t41 -95z" />
    <glyph glyph-name="AE" unicode="&#xc6;" horiz-adv-x="1120" 
d="M1038 -8v35h-457v326h360v35h-360v294h443v35h-486l-564 -725h44l193 247h332v-247h495zM543 274h-306l156 201q38 49 75 97t75 99v-193v-204z" />
    <glyph glyph-name="Ccedilla" unicode="&#xc7;" horiz-adv-x="844" 
d="M782 153l-30 21q-17 -24 -43.5 -52.5t-62 -53t-81 -40.5t-100.5 -16q-68 0 -132 21t-113.5 63t-79.5 106.5t-30 151.5q0 92 32 157t83 106.5t115.5 60.5t129.5 19q48 0 87 -11.5t70.5 -31t56 -45.5t43.5 -56l32 19q-21 33 -49.5 62t-64.5 50.5t-79.5 34t-95.5 12.5
q-88 0 -160 -26.5t-125 -75.5q-54 -50 -83.5 -119t-29.5 -155q0 -87 30.5 -157t87.5 -123q41 -38 105 -65t145 -31l-46 -64l24 -12q51 10 83.5 0t32.5 -34q0 -6 -4.5 -13.5t-15 -14t-29 -11t-45.5 -4.5q-28 0 -50.5 5.5t-41.5 13.5l-19 -27q23 -12 51 -18.5t65 -6.5
q63 0 94 22t31 54q0 21 -10.5 35.5t-27 22.5t-37 11t-40.5 2l27 38q56 3 102 20t83 42t65.5 54.5t49.5 58.5z" />
    <glyph glyph-name="Egrave" unicode="&#xc8;" horiz-adv-x="719" 
d="M418 729l-173 106h-89l208 -106h54zM637 -8v35h-457v326h360v35h-360v294h443v35h-481v-725h495z" />
    <glyph glyph-name="Eacute" unicode="&#xc9;" horiz-adv-x="719" 
d="M568 835h-89l-173 -106h54zM637 -8v35h-457v326h360v35h-360v294h443v35h-481v-725h495z" />
    <glyph glyph-name="Ecircumflex" unicode="&#xca;" horiz-adv-x="719" 
d="M547 751l-184 83h-6l-184 -83h56l131 44q-1 0 12.5 -4.5t32.5 -11t39 -13t33 -11t14 -4.5h56zM637 -8v35h-457v326h360v35h-360v294h443v35h-481v-725h495z" />
    <glyph glyph-name="Edieresis" unicode="&#xcb;" horiz-adv-x="719" 
d="M513 759v88h-34v-88h34zM281 759v88h-34v-88h34zM637 -8v35h-457v326h360v35h-360v294h443v35h-481v-725h495z" />
    <glyph glyph-name="Igrave" unicode="&#xcc;" horiz-adv-x="342" 
d="M269 729l-173 106h-89l208 -106h54zM190 -8v725h-38v-725h38z" />
    <glyph glyph-name="Iacute" unicode="&#xcd;" horiz-adv-x="342" 
d="M339 835h-89l-173 -106h54zM190 -8v725h-38v-725h38z" />
    <glyph glyph-name="Icircumflex" unicode="&#xce;" horiz-adv-x="342" 
d="M358 751l-184 83h-6l-184 -83h56l131 44q-1 0 12.5 -4.5t32.5 -11t39 -13t33 -11t14 -4.5h56zM190 -8v725h-38v-725h38z" />
    <glyph glyph-name="Idieresis" unicode="&#xcf;" horiz-adv-x="342" 
d="M304 739v88h-34v-88h34zM72 739v88h-34v-88h34zM190 -8v725h-38v-725h38z" />
    <glyph glyph-name="Eth" unicode="&#xd0;" horiz-adv-x="881" 
d="M789 354q0 82 -25 149.5t-76.5 114.5t-129 73t-182.5 26h-234v-330h-90v-35h90v-360h234q105 0 182.5 26t129 73t76.5 114t25 149zM751 354q0 -73 -21.5 -133t-67 -103t-116 -67t-168.5 -24h-198v325h253v35h-253v295h198q98 0 168.5 -24t116 -67t67 -103.5t21.5 -133.5z
" />
    <glyph glyph-name="Ntilde" unicode="&#xd1;" horiz-adv-x="904" 
d="M614 808l-23 23q-17 -19 -33.5 -25t-37.5 -6q-16 0 -31 2.5t-23 5.5l-22 7q-18 5 -34 7t-29 2q-26 0 -49 -8.5t-43 -32.5l24 -23q16 20 31.5 25t36.5 5q16 0 31 -2.5t23 -5.5l22 -7q18 -6 34.5 -7.5t28.5 -1.5q27 0 50.5 9t43.5 33zM762 -8v725h-38v-416q0 -166 2 -258
q-73 91 -208 258t-337 416h-39v-725h38v415t-2 259q73 -92 208.5 -259t336.5 -415h39z" />
    <glyph glyph-name="Ograve" unicode="&#xd2;" horiz-adv-x="940" 
d="M868 354q0 90 -30 158.5t-80.5 115.5t-116.5 72t-139 30h25l-173 106h-89l206 -105h-1q-77 0 -149 -23t-127.5 -69.5t-88.5 -117.5t-33 -166v-1q0 -95 33 -166t88.5 -117.5t127.5 -69.5t149 -23t149 23t127.5 69.5t88.5 117.5t33 166zM830 355q0 -87 -30 -151.5
t-79.5 -106.5t-115 -63t-135.5 -21q-71 0 -136 21t-114.5 63t-79.5 106.5t-30 151.5t30 151.5t79.5 107t114.5 63.5t135 21h1q70 0 135.5 -21t115 -63.5t79.5 -107t30 -151.5z" />
    <glyph glyph-name="Oacute" unicode="&#xd3;" horiz-adv-x="940" 
d="M868 354q0 95 -33 166t-88 118t-127 70t-149 23l206 105h-89l-173 -106h23q-73 -5 -139 -30t-116.5 -72t-80.5 -115t-30 -158v-1q0 -95 33 -166t88.5 -117.5t127.5 -69.5t149 -23t149 23t127.5 69.5t88.5 117.5t33 166zM830 355q0 -87 -30 -151.5t-79.5 -106.5t-115 -63
t-135.5 -21q-71 0 -136 21t-114.5 63t-79.5 106.5t-30 151.5t30 151.5t79.5 107t114.5 63.5t135 21h1q70 0 135.5 -21t115 -63.5t79.5 -107t30 -151.5z" />
    <glyph glyph-name="Ocircumflex" unicode="&#xd4;" horiz-adv-x="940" 
d="M656 752l-184 83h-6l-184 -83h56l131 44q-1 0 12.5 -4.5t32.5 -11t39 -13t33 -11t14 -4.5h56zM868 354q0 96 -33 166.5t-88.5 117.5t-127.5 70t-149 23t-149 -23t-127.5 -69.5t-88.5 -117.5t-33 -166v-1q0 -95 33 -166t88.5 -117.5t127.5 -69.5t149 -23t149 23
t127.5 69.5t88.5 117.5t33 166zM830 355q0 -87 -30 -151.5t-79.5 -106.5t-115 -63t-135.5 -21q-71 0 -136 21t-114.5 63t-79.5 106.5t-30 151.5t30 151.5t79.5 107t114.5 63.5t135 21h1q70 0 135.5 -21t115 -63.5t79.5 -107t30 -151.5z" />
    <glyph glyph-name="Otilde" unicode="&#xd5;" horiz-adv-x="940" 
d="M631 809l-23 23q-17 -19 -33.5 -25t-37.5 -6q-16 0 -31 2.5t-23 5.5l-22 7q-18 5 -34 7t-29 2q-26 0 -49 -8.5t-43 -32.5l24 -23q16 20 31.5 25t36.5 5q16 0 31 -2.5t23 -5.5l22 -7q18 -6 34.5 -7.5t28.5 -1.5q27 0 50.5 9t43.5 33zM868 354q0 96 -33 166.5t-88.5 117.5
t-127.5 70t-149 23t-149 -23t-127.5 -69.5t-88.5 -117.5t-33 -166v-1q0 -95 33 -166t88.5 -117.5t127.5 -69.5t149 -23t149 23t127.5 69.5t88.5 117.5t33 166zM830 355q0 -87 -30 -151.5t-79.5 -106.5t-115 -63t-135.5 -21q-71 0 -136 21t-114.5 63t-79.5 106.5t-30 151.5
t30 151.5t79.5 107t114.5 63.5t135 21h1q70 0 135.5 -21t115 -63.5t79.5 -107t30 -151.5z" />
    <glyph glyph-name="Odieresis" unicode="&#xd6;" horiz-adv-x="940" 
d="M602 740v88h-34v-88h34zM370 740v88h-34v-88h34zM868 354q0 96 -33 166.5t-88.5 117.5t-127.5 70t-149 23t-149 -23t-127.5 -69.5t-88.5 -117.5t-33 -166v-1q0 -95 33 -166t88.5 -117.5t127.5 -69.5t149 -23t149 23t127.5 69.5t88.5 117.5t33 166zM830 355
q0 -87 -30 -151.5t-79.5 -106.5t-115 -63t-135.5 -21q-71 0 -136 21t-114.5 63t-79.5 106.5t-30 151.5t30 151.5t79.5 107t114.5 63.5t135 21h1q70 0 135.5 -21t115 -63.5t79.5 -107t30 -151.5z" />
    <glyph glyph-name="multiply" unicode="&#xd7;" horiz-adv-x="800" 
d="M643 32l-221 221l221 221l-22 22l-221 -221l-221 221l-22 -22l221 -221l-221 -221l22 -22l221 221l221 -221z" />
    <glyph glyph-name="Oslash" unicode="&#xd8;" horiz-adv-x="940" 
d="M883 707l-25 27l-106 -101q-54 48 -126 73t-156 25q-77 0 -149 -23t-127.5 -70t-88.5 -117.5t-33 -166.5q0 -46 8 -84.5t21 -70t30 -56.5t35 -44l-109 -97l25 -27l106 101q54 -48 126 -73t155 -25q78 0 150 23t127.5 69.5t88.5 117.5t33 166q0 46 -8 84.5t-21 70
t-30 56.5t-35 45zM727 612l-538 -494q-38 45 -58.5 105.5t-20.5 130.5q0 87 30 151.5t79.5 107t114.5 63.5t136 21q50 0 92.5 -9t72.5 -21q29 -12 52 -26.5t40 -28.5zM830 354q0 -87 -30 -151.5t-79.5 -106.5t-115 -63t-135.5 -21q-50 0 -92.5 9t-72.5 21q-30 13 -52.5 27
t-39.5 28l538 494q38 -45 58.5 -106t20.5 -131z" />
    <glyph glyph-name="Ugrave" unicode="&#xd9;" horiz-adv-x="833" 
d="M475 729l-173 106h-89l208 -106h54zM701 287v430h-38v-428q0 -75 -11 -128t-39 -86t-76 -48t-122 -15q-72 0 -119 15t-75 48t-39.5 86t-11.5 128v428h-38v-430q0 -89 16.5 -148.5t51 -95t88 -50.5t127.5 -15q76 0 130 15t88.5 50.5t51 95t16.5 148.5z" />
    <glyph glyph-name="Uacute" unicode="&#xda;" horiz-adv-x="833" 
d="M625 835h-89l-173 -106h54zM701 287v430h-38v-428q0 -75 -11 -128t-39 -86t-76 -48t-122 -15q-72 0 -119 15t-75 48t-39.5 86t-11.5 128v428h-38v-430q0 -89 16.5 -148.5t51 -95t88 -50.5t127.5 -15q76 0 130 15t88.5 50.5t51 95t16.5 148.5z" />
    <glyph glyph-name="Ucircumflex" unicode="&#xdb;" horiz-adv-x="833" 
d="M604 751l-184 83h-6l-184 -83h56l131 44q-1 0 12.5 -4.5t32.5 -11t39 -13t33 -11t14 -4.5h56zM701 287v430h-38v-428q0 -75 -11 -128t-39 -86t-76 -48t-122 -15q-72 0 -119 15t-75 48t-39.5 86t-11.5 128v428h-38v-430q0 -89 16.5 -148.5t51 -95t88 -50.5t127.5 -15
q76 0 130 15t88.5 50.5t51 95t16.5 148.5z" />
    <glyph glyph-name="Udieresis" unicode="&#xdc;" horiz-adv-x="833" 
d="M550 719v88h-34v-88h34zM318 719v88h-34v-88h34zM701 287v430h-38v-428q0 -75 -11 -128t-39 -86t-76 -48t-122 -15q-72 0 -119 15t-75 48t-39.5 86t-11.5 128v428h-38v-430q0 -89 16.5 -148.5t51 -95t88 -50.5t127.5 -15q76 0 130 15t88.5 50.5t51 95t16.5 148.5z" />
    <glyph glyph-name="Yacute" unicode="&#xdd;" horiz-adv-x="700" 
d="M558 835h-89l-173 -106h54zM681 717h-45l-146 -195q-35 -47 -70 -92.5t-70 -93.5q-35 47 -70 92t-70 93l-146 196h-45l312 -415v-310h38v310z" />
    <glyph glyph-name="Thorn" unicode="&#xde;" horiz-adv-x="811" 
d="M758 381q0 48 -21 87.5t-66.5 67.5t-117 43.5t-172.5 15.5h-201v122h-38v-725h38v170h181q106 0 181.5 15t123.5 43t70 69t22 92zM720 381q0 -40 -17.5 -73.5t-59 -58t-111 -38.5t-173.5 -14h-179v363h209q94 0 158 -14.5t102 -39t54.5 -57t16.5 -68.5z" />
    <glyph glyph-name="germandbls" unicode="&#xdf;" horiz-adv-x="740" 
d="M680 245q0 58 -18.5 98t-48.5 66t-68.5 39.5t-77.5 19.5q41 14 64.5 38.5t37.5 43.5q4 6 7 15t5.5 19t3.5 18.5t2 14.5q2 11 2 19v13q0 17 -5.5 42.5t-27 49t-64 40t-117.5 16.5q-84 0 -136 -29t-80 -73t-37.5 -96t-9.5 -97v-750h36v748q0 40 7 86t30.5 85.5t68.5 66
t121 26.5q66 0 102 -14t53 -33t20 -37.5t3 -27.5q0 -33 -11 -64t-38.5 -54.5t-75 -37.5t-119.5 -14h-10v-33h13q175 0 253.5 -50.5t78.5 -154.5q0 -47 -14.5 -87t-47 -69t-85.5 -46t-130 -17h-38v-33h39q92 0 152 21.5t95.5 57t50 81t14.5 93.5z" />
    <glyph glyph-name="agrave" unicode="&#xe0;" horiz-adv-x="653" 
d="M372 564l-159 129h-65l181 -129h43zM578 -8v13q-11 12 -17.5 21t-9.5 18t-4 21t-1 31v280q0 86 -52.5 131t-173.5 45q-55 0 -90 -6.5l-35 -6.5l3 -34l26.5 7t94.5 7q55 0 91.5 -9t58.5 -27.5t31.5 -46.5t9.5 -65v-19q-110 -9 -194.5 -23t-142 -38t-87 -61.5t-29.5 -94.5
q0 -28 11.5 -56t38.5 -50t72.5 -35.5t114.5 -13.5q20 0 47.5 3.5t57 13t59.5 25t54 39.5q2 -19 8.5 -35t22.5 -34h35zM510 105q-24 -30 -54 -48t-60 -28t-56.5 -13t-43.5 -3q-63 0 -102.5 12t-62 30t-30.5 39.5t-8 41.5q0 46 26 77t77.5 51.5t130 33t183.5 21.5v-214z" />
    <glyph glyph-name="aacute" unicode="&#xe1;" horiz-adv-x="653" 
d="M506 693h-65l-159 -129h43zM578 -8v13q-11 12 -17.5 21t-9.5 18t-4 21t-1 31v280q0 86 -52.5 131t-173.5 45q-55 0 -90 -6.5l-35 -6.5l3 -34l26.5 7t94.5 7q55 0 91.5 -9t58.5 -27.5t31.5 -46.5t9.5 -65v-19q-110 -9 -194.5 -23t-142 -38t-87 -61.5t-29.5 -94.5
q0 -28 11.5 -56t38.5 -50t72.5 -35.5t114.5 -13.5q20 0 47.5 3.5t57 13t59.5 25t54 39.5q2 -19 8.5 -35t22.5 -34h35zM510 105q-24 -30 -54 -48t-60 -28t-56.5 -13t-43.5 -3q-63 0 -102.5 12t-62 30t-30.5 39.5t-8 41.5q0 46 26 77t77.5 51.5t130 33t183.5 21.5v-214z" />
    <glyph glyph-name="acircumflex" unicode="&#xe2;" horiz-adv-x="653" 
d="M494 583l-164 108h-6l-164 -108h47l120 65l120 -65h47zM578 -8v13q-11 12 -17.5 21t-9.5 18t-4 21t-1 31v280q0 86 -52.5 131t-173.5 45q-55 0 -90 -6.5l-35 -6.5l3 -34l26.5 7t94.5 7q55 0 91.5 -9t58.5 -27.5t31.5 -46.5t9.5 -65v-19q-110 -9 -194.5 -23t-142 -38
t-87 -61.5t-29.5 -94.5q0 -28 11.5 -56t38.5 -50t72.5 -35.5t114.5 -13.5q20 0 47.5 3.5t57 13t59.5 25t54 39.5q2 -19 8.5 -35t22.5 -34h35zM510 105q-24 -30 -54 -48t-60 -28t-56.5 -13t-43.5 -3q-63 0 -102.5 12t-62 30t-30.5 39.5t-8 41.5q0 46 26 77t77.5 51.5t130 33
t183.5 21.5v-214z" />
    <glyph glyph-name="atilde" unicode="&#xe3;" horiz-adv-x="653" 
d="M476 659l-23 23q-16 -17 -29 -22t-32 -5q-14 0 -28.5 3t-22.5 5l-20 6q-17 5 -31.5 6.5t-25.5 1.5q-23 0 -44.5 -7.5t-39.5 -30.5l23 -23q16 17 29 22t32 5q14 0 28.5 -3t22.5 -5l20 -6q17 -5 31.5 -6.5t25.5 -1.5q23 0 44.5 7.5t39.5 30.5zM578 -8v13q-11 12 -17.5 21
t-9.5 18t-4 21t-1 31v280q0 86 -52.5 131t-173.5 45q-55 0 -90 -6.5l-35 -6.5l3 -34l26.5 7t94.5 7q55 0 91.5 -9t58.5 -27.5t31.5 -46.5t9.5 -65v-19q-110 -9 -194.5 -23t-142 -38t-87 -61.5t-29.5 -94.5q0 -28 11.5 -56t38.5 -50t72.5 -35.5t114.5 -13.5q20 0 47.5 3.5
t57 13t59.5 25t54 39.5q2 -19 8.5 -35t22.5 -34h35zM510 105q-24 -30 -54 -48t-60 -28t-56.5 -13t-43.5 -3q-63 0 -102.5 12t-62 30t-30.5 39.5t-8 41.5q0 46 26 77t77.5 51.5t130 33t183.5 21.5v-214z" />
    <glyph glyph-name="adieresis" unicode="&#xe4;" horiz-adv-x="653" 
d="M458 604v93h-34v-93h34zM230 604v93h-34v-93h34zM578 -8v13q-11 12 -17.5 21t-9.5 18t-4 21t-1 31v280q0 86 -52.5 131t-173.5 45q-55 0 -90 -6.5l-35 -6.5l3 -34l26.5 7t94.5 7q55 0 91.5 -9t58.5 -27.5t31.5 -46.5t9.5 -65v-19q-110 -9 -194.5 -23t-142 -38t-87 -61.5
t-29.5 -94.5q0 -28 11.5 -56t38.5 -50t72.5 -35.5t114.5 -13.5q20 0 47.5 3.5t57 13t59.5 25t54 39.5q2 -19 8.5 -35t22.5 -34h35zM510 105q-24 -30 -54 -48t-60 -28t-56.5 -13t-43.5 -3q-63 0 -102.5 12t-62 30t-30.5 39.5t-8 41.5q0 46 26 77t77.5 51.5t130 33t183.5 21.5
v-214z" />
    <glyph glyph-name="aring" unicode="&#xe5;" horiz-adv-x="653" 
d="M412 643q0 18 -7.5 31t-20 21.5t-27.5 13t-30 4.5t-30 -4.5t-27.5 -13t-20 -21.5t-7.5 -31t7.5 -31t19.5 -21.5t27 -13t30 -4.5h1q15 0 30 4.5t27.5 13t20 21.5t7.5 31zM376 643q0 -14 -11.5 -25.5t-37.5 -11.5h-1q-28 0 -39 11.5t-11 25.5q0 17 13.5 27t36.5 10
t36.5 -10t13.5 -27zM578 -8v13q-11 12 -17.5 21t-9.5 18t-4 21t-1 31v280q0 86 -52.5 131t-173.5 45q-55 0 -90 -6.5l-35 -6.5l3 -34l26.5 7t94.5 7q55 0 91.5 -9t58.5 -27.5t31.5 -46.5t9.5 -65v-19q-110 -9 -194.5 -23t-142 -38t-87 -61.5t-29.5 -94.5q0 -28 11.5 -56
t38.5 -50t72.5 -35.5t114.5 -13.5q20 0 47.5 3.5t57 13t59.5 25t54 39.5q2 -19 8.5 -35t22.5 -34h35zM510 105q-24 -30 -54 -48t-60 -28t-56.5 -13t-43.5 -3q-63 0 -102.5 12t-62 30t-30.5 39.5t-8 41.5q0 46 26 77t77.5 51.5t130 33t183.5 21.5v-214z" />
    <glyph glyph-name="ae" unicode="&#xe6;" horiz-adv-x="1130" 
d="M1081 261q0 125 -75 205q-39 41 -91 63.5t-110 22.5q-51 0 -93.5 -12t-76 -33t-57.5 -49t-38 -59q-3 34 -14.5 62t-36 48t-65.5 31.5t-104 11.5q-62 0 -96.5 -3.5t-51.5 -7.5t-21 -7.5l-4 -3.5l8 -26l7 2.5t25 5t50 5t82 2.5q57 0 94 -10t58.5 -28.5t30 -46t8.5 -63.5
v-19q-110 -9 -194.5 -23t-142 -38t-87 -61.5t-29.5 -94.5q0 -28 11.5 -56t38.5 -50t72.5 -35.5t114.5 -13.5q81 0 148.5 31t117.5 84q25 -36 57 -58.5t65.5 -35t66 -17t58.5 -4.5q40 0 87.5 8.5t88.5 18t68.5 18l27.5 8.5l-7 34q-3 -1 -30 -9.5t-66 -18.5t-85 -18t-88 -8
t-87 12.5t-82.5 42t-62 77t-25.5 116.5h535zM1043 295h-497q1 41 18.5 81t50 72t80 51.5t110.5 19.5q51 0 93.5 -18.5t73.5 -50t49.5 -72t21.5 -83.5zM542 124q-19 -22 -45.5 -42t-58 -35.5t-67.5 -24.5t-75 -9q-63 0 -102.5 12t-62 30t-30.5 39.5t-8 41.5q0 46 26 77
t77.5 51.5t130 33t183.5 21.5v-46q0 -45 8.5 -82t23.5 -67z" />
    <glyph glyph-name="ccedilla" unicode="&#xe7;" horiz-adv-x="673" 
d="M625 112l-33 16q-15 -24 -34.5 -45t-46.5 -36.5t-62.5 -24.5t-81.5 -9q-51 0 -99 14.5t-86 45t-61 78.5t-23 115q0 64 23 111.5t61 79t86.5 47t98.5 15.5q41 0 72.5 -6.5t56.5 -19t45 -31t37 -41.5l31 19q-20 27 -43.5 47.5t-53 35t-65 22t-80.5 7.5q-57 0 -112 -17.5
t-97.5 -52.5t-69 -89t-26.5 -127q0 -72 23.5 -125t63.5 -88t92 -53t108 -20l-41 -52l24 -13q11 3 29 5.5t34.5 0.5t28.5 -9.5t12 -23.5q0 -11 -7.5 -18t-19.5 -11.5t-26.5 -6.5t-27.5 -2q-25 0 -45.5 5t-39.5 14l-19 -27q19 -10 45 -17.5t59 -7.5q24 0 44.5 4.5t36.5 13
t25 22t9 31.5q0 20 -10 33t-25 20.5t-33 10t-34 1.5l22 27q48 3 84.5 14.5t64.5 29.5t49 40.5t37 47.5z" />
    <glyph glyph-name="egrave" unicode="&#xe8;" horiz-adv-x="682" 
d="M386 564l-159 129h-65l181 -129h43zM633 261q0 67 -21 118t-54 86q-41 43 -92.5 65t-108.5 22q-66 0 -117.5 -19.5t-89.5 -53.5q-42 -37 -65 -88.5t-23 -117.5q0 -73 22 -126t59 -89q43 -41 99.5 -59.5t114.5 -18.5q40 0 87.5 8.5t88.5 18t68.5 18l27.5 8.5l-7 34
q-3 -1 -29.5 -9.5t-65 -18.5t-84.5 -18t-88 -8t-87 12.5t-82.5 42t-62 77t-25.5 116.5h535zM595 295h-497q1 46 20.5 86.5t53.5 71t81 48.5t104 18q51 0 93.5 -18.5t73.5 -50t49.5 -72t21.5 -83.5z" />
    <glyph glyph-name="eacute" unicode="&#xe9;" horiz-adv-x="682" 
d="M520 693h-65l-159 -129h43zM633 261q0 67 -21 118t-54 86q-41 43 -92.5 65t-108.5 22q-66 0 -117.5 -19.5t-89.5 -53.5q-42 -37 -65 -88.5t-23 -117.5q0 -73 22 -126t59 -89q43 -41 99.5 -59.5t114.5 -18.5q40 0 87.5 8.5t88.5 18t68.5 18l27.5 8.5l-7 34
q-3 -1 -29.5 -9.5t-65 -18.5t-84.5 -18t-88 -8t-87 12.5t-82.5 42t-62 77t-25.5 116.5h535zM595 295h-497q1 46 20.5 86.5t53.5 71t81 48.5t104 18q51 0 93.5 -18.5t73.5 -50t49.5 -72t21.5 -83.5z" />
    <glyph glyph-name="ecircumflex" unicode="&#xea;" horiz-adv-x="682" 
d="M508 583l-164 108h-6l-164 -108h47l120 65l120 -65h47zM633 261q0 67 -21 118t-54 86q-41 43 -92.5 65t-108.5 22q-66 0 -117.5 -19.5t-89.5 -53.5q-42 -37 -65 -88.5t-23 -117.5q0 -73 22 -126t59 -89q43 -41 99.5 -59.5t114.5 -18.5q40 0 87.5 8.5t88.5 18t68.5 18
l27.5 8.5l-7 34q-3 -1 -29.5 -9.5t-65 -18.5t-84.5 -18t-88 -8t-87 12.5t-82.5 42t-62 77t-25.5 116.5h535zM595 295h-497q1 46 20.5 86.5t53.5 71t81 48.5t104 18q51 0 93.5 -18.5t73.5 -50t49.5 -72t21.5 -83.5z" />
    <glyph glyph-name="edieresis" unicode="&#xeb;" horiz-adv-x="682" 
d="M472 604v93h-34v-93h34zM244 604v93h-34v-93h34zM633 261q0 67 -21 118t-54 86q-41 43 -92.5 65t-108.5 22q-66 0 -117.5 -19.5t-89.5 -53.5q-42 -37 -65 -88.5t-23 -117.5q0 -73 22 -126t59 -89q43 -41 99.5 -59.5t114.5 -18.5q40 0 87.5 8.5t88.5 18t68.5 18l27.5 8.5
l-7 34q-3 -1 -29.5 -9.5t-65 -18.5t-84.5 -18t-88 -8t-87 12.5t-82.5 42t-62 77t-25.5 116.5h535zM595 295h-497q1 46 20.5 86.5t53.5 71t81 48.5t104 18q51 0 93.5 -18.5t73.5 -50t49.5 -72t21.5 -83.5z" />
    <glyph glyph-name="igrave" unicode="&#xec;" horiz-adv-x="280" 
d="M225 564l-159 129h-65l181 -129h43zM158 -8v548h-36v-548h36z" />
    <glyph glyph-name="iacute" unicode="&#xed;" horiz-adv-x="280" 
d="M279 693h-65l-159 -129h43zM158 -8v548h-36v-548h36z" />
    <glyph glyph-name="icircumflex" unicode="&#xee;" horiz-adv-x="280" 
d="M307 583l-164 108h-6l-164 -108h47l120 65l120 -65h47zM158 -8v548h-36v-548h36z" />
    <glyph glyph-name="idieresis" unicode="&#xef;" horiz-adv-x="280" 
d="M271 604v93h-34v-93h34zM43 604v93h-34v-93h34zM158 -8v548h-36v-548h36z" />
    <glyph glyph-name="eth" unicode="&#xf0;" horiz-adv-x="739" 
d="M677 312q0 57 -16.5 115.5t-48.5 109.5q-23 35 -56.5 68.5t-78.5 62.5l150 46l-30 24l-157 -48q-55 23 -113 38t-120 19l-71 -28q97 -5 155.5 -17.5t98.5 -27.5l-217 -66l31 -24l230 70q62 -33 95.5 -68t52.5 -63q14 -22 26.5 -47t21.5 -53q-21 34 -50 58.5t-63.5 40.5
t-72 23t-75.5 7q-64 0 -120 -19t-97.5 -56t-65.5 -90t-24 -121q0 -57 19 -109t57 -91t95.5 -62.5t135.5 -23.5q74 0 131 21.5t94 63.5q18 20 33 42t26.5 50t17.5 65.5t6 89.5zM641 280q0 -46 -14 -93.5t-45.5 -86t-83 -63t-127.5 -24.5h-1q-69 0 -120.5 21t-85 56t-50 80.5
t-16.5 95.5q0 60 21 107t57.5 79.5t86 49.5t107.5 17q65 0 115.5 -20.5t85 -54t52.5 -76.5t18 -88z" />
    <glyph glyph-name="ntilde" unicode="&#xf1;" horiz-adv-x="721" 
d="M510 659l-23 23q-16 -17 -29 -22t-32 -5q-14 0 -28.5 3t-22.5 5l-20 6q-17 5 -31.5 6.5t-25.5 1.5q-23 0 -44.5 -7.5t-39.5 -30.5l23 -23q16 17 29 22t32 5q14 0 28.5 -3t22.5 -5l20 -6q17 -5 31.5 -6.5t25.5 -1.5q23 0 44.5 7.5t39.5 30.5zM614 -8v383q0 44 -11 73.5
t-33 52.5q-49 51 -149 51q-34 0 -68.5 -6.5t-71.5 -21.5q-69 -27 -139 -79q2 6 3 21.5t2 32t1 28.5v13h-36v-548h36v417q13 11 30.5 23t37 23.5t39 21.5t36.5 16q70 26 128 26q48 0 78 -12t47 -30q21 -20 27.5 -47t6.5 -56v-382h36z" />
    <glyph glyph-name="ograve" unicode="&#xf2;" horiz-adv-x="739" 
d="M415 564l-159 129h-65l181 -129h43zM677 265v1q0 68 -24 121t-65.5 90t-97.5 56t-120 19t-120 -19t-98 -56t-66 -90t-24 -121q0 -57 19 -109t57 -91t96 -62.5t136 -23.5q80 0 138 24.5t95.5 64t55.5 91t18 105.5zM641 265q0 -50 -16.5 -95.5t-50 -80.5t-84.5 -56
t-119 -21h-1q-69 0 -120.5 21t-85 56t-50 80.5t-16.5 95.5q0 60 21 107t57.5 79.5t86 49.5t107.5 17q57 0 106.5 -17t86 -49.5t57.5 -79.5t21 -107z" />
    <glyph glyph-name="oacute" unicode="&#xf3;" horiz-adv-x="739" 
d="M549 693h-65l-159 -129h43zM677 265v1q0 68 -24 121t-65.5 90t-97.5 56t-120 19t-120 -19t-98 -56t-66 -90t-24 -121q0 -57 19 -109t57 -91t96 -62.5t136 -23.5q80 0 138 24.5t95.5 64t55.5 91t18 105.5zM641 265q0 -50 -16.5 -95.5t-50 -80.5t-84.5 -56t-119 -21h-1
q-69 0 -120.5 21t-85 56t-50 80.5t-16.5 95.5q0 60 21 107t57.5 79.5t86 49.5t107.5 17q57 0 106.5 -17t86 -49.5t57.5 -79.5t21 -107z" />
    <glyph glyph-name="ocircumflex" unicode="&#xf4;" horiz-adv-x="739" 
d="M537 583l-164 108h-6l-164 -108h47l120 65l120 -65h47zM677 265v1q0 68 -24 121t-65.5 90t-97.5 56t-120 19t-120 -19t-98 -56t-66 -90t-24 -121q0 -57 19 -109t57 -91t96 -62.5t136 -23.5q80 0 138 24.5t95.5 64t55.5 91t18 105.5zM641 265q0 -50 -16.5 -95.5t-50 -80.5
t-84.5 -56t-119 -21h-1q-69 0 -120.5 21t-85 56t-50 80.5t-16.5 95.5q0 60 21 107t57.5 79.5t86 49.5t107.5 17q57 0 106.5 -17t86 -49.5t57.5 -79.5t21 -107z" />
    <glyph glyph-name="otilde" unicode="&#xf5;" horiz-adv-x="739" 
d="M519 659l-23 23q-16 -17 -29 -22t-32 -5q-14 0 -28.5 3t-22.5 5l-20 6q-17 5 -31.5 6.5t-25.5 1.5q-23 0 -44.5 -7.5t-39.5 -30.5l23 -23q16 17 29 22t32 5q14 0 28.5 -3t22.5 -5l20 -6q17 -5 31.5 -6.5t25.5 -1.5q23 0 44.5 7.5t39.5 30.5zM677 265v1q0 68 -24 121
t-65.5 90t-97.5 56t-120 19t-120 -19t-98 -56t-66 -90t-24 -121q0 -57 19 -109t57 -91t96 -62.5t136 -23.5q80 0 138 24.5t95.5 64t55.5 91t18 105.5zM641 265q0 -50 -16.5 -95.5t-50 -80.5t-84.5 -56t-119 -21h-1q-69 0 -120.5 21t-85 56t-50 80.5t-16.5 95.5q0 60 21 107
t57.5 79.5t86 49.5t107.5 17q57 0 106.5 -17t86 -49.5t57.5 -79.5t21 -107z" />
    <glyph glyph-name="odieresis" unicode="&#xf6;" horiz-adv-x="739" 
d="M510 604v93h-34v-93h34zM282 604v93h-34v-93h34zM686 265v1q0 68 -24 121t-65.5 90t-97.5 56t-120 19t-120 -19t-98 -56t-66 -90t-24 -121q0 -57 19 -109t57.5 -91t96 -62.5t135.5 -23.5q80 0 138 24.5t95.5 64t55.5 91t18 105.5zM650 265q0 -50 -16.5 -95.5t-50 -80.5
t-84 -56t-119.5 -21h-1q-69 0 -120.5 21t-85 56t-50 80.5t-16.5 95.5q0 60 21 107t57.5 79.5t86 49.5t107.5 17t107.5 -17t86 -49.5t57 -79.5t20.5 -107z" />
    <glyph glyph-name="divide" unicode="&#xf7;" horiz-adv-x="800" 
d="M426 395q0 11 -7 18.5t-18 7.5h-1q-11 0 -18.5 -7.5t-7.5 -18.5t7.5 -18.5t18.5 -7.5t18.5 7.5t7.5 18.5zM665 238v32h-528v-32h528zM427 113q0 11 -7 18.5t-18 7.5h-1q-11 0 -18.5 -7.5t-7.5 -18.5t7.5 -18.5t18.5 -7.5t18.5 7.5t7.5 18.5z" />
    <glyph glyph-name="oslash" unicode="&#xf8;" horiz-adv-x="739" 
d="M714 530l-21 25l-100 -85q-32 32 -85.5 56.5t-136.5 24.5q-65 0 -121.5 -19t-98 -56t-65.5 -90t-24 -121q0 -48 15 -94.5t49 -88.5l-101 -82l21 -25l100 85q12 -12 31 -26.5t46 -26.5t62.5 -20t82.5 -8q81 0 139 24.5t96 64.5t56 91.5t18 105.5q0 48 -15 94.5t-49 88.5z
M571 452l-422 -353q-15 21 -33 61.5t-18 104.5q0 60 20.5 107t57.5 79.5t87 49.5t109 17q35 0 67 -5.5t56 -14.5q28 -11 46 -23t30 -23zM641 265q0 -50 -16.5 -95.5t-50 -80.5t-85 -56t-121.5 -21q-35 0 -67.5 5.5t-56.5 14.5q-28 11 -46 23t-30 23l422 353
q16 -21 33.5 -61.5t17.5 -104.5z" />
    <glyph glyph-name="ugrave" unicode="&#xf9;" horiz-adv-x="721" 
d="M406 564l-159 129h-65l181 -129h43zM609 -8v548h-36v-417q-38 -29 -75.5 -50t-66.5 -33q-34 -13 -67 -20t-62 -7q-51 0 -80 13t-45 28q-22 21 -28 47t-6 57v382h-36v-383q0 -44 11 -73.5t33 -52.5q49 -51 149 -51q69 0 140 29q35 13 67 32.5t72 45.5q-2 -5 -3 -20.5
t-2 -32t-1 -29.5v-13h36z" />
    <glyph glyph-name="uacute" unicode="&#xfa;" horiz-adv-x="721" 
d="M540 693h-65l-159 -129h43zM609 -8v548h-36v-417q-38 -29 -75.5 -50t-66.5 -33q-34 -13 -67 -20t-62 -7q-51 0 -80 13t-45 28q-22 21 -28 47t-6 57v382h-36v-383q0 -44 11 -73.5t33 -52.5q49 -51 149 -51q69 0 140 29q35 13 67 32.5t72 45.5q-2 -5 -3 -20.5t-2 -32
t-1 -29.5v-13h36z" />
    <glyph glyph-name="ucircumflex" unicode="&#xfb;" horiz-adv-x="721" 
d="M528 583l-164 108h-6l-164 -108h47l120 65l120 -65h47zM609 -8v548h-36v-417q-38 -29 -75.5 -50t-66.5 -33q-34 -13 -67 -20t-62 -7q-51 0 -80 13t-45 28q-22 21 -28 47t-6 57v382h-36v-383q0 -44 11 -73.5t33 -52.5q49 -51 149 -51q69 0 140 29q35 13 67 32.5t72 45.5
q-2 -5 -3 -20.5t-2 -32t-1 -29.5v-13h36z" />
    <glyph glyph-name="udieresis" unicode="&#xfc;" horiz-adv-x="721" 
d="M492 604v93h-34v-93h34zM264 604v93h-34v-93h34zM609 -8v548h-36v-417q-38 -29 -75.5 -50t-66.5 -33q-34 -13 -67 -20t-62 -7q-51 0 -80 13t-45 28q-22 21 -28 47t-6 57v382h-36v-383q0 -44 11 -73.5t33 -52.5q49 -51 149 -51q69 0 140 29q35 13 67 32.5t72 45.5
q-2 -5 -3 -20.5t-2 -32t-1 -29.5v-13h36z" />
    <glyph glyph-name="yacute" unicode="&#xfd;" horiz-adv-x="661" 
d="M550 693h-65l-159 -129h43zM638 540h-38l-107 -250q-52 -120 -105 -245q-38 60 -76.5 121.5t-76.5 122.5l-158 251h-41l335 -533l-50 -114q-23 -51 -57 -84q-24 -23 -55 -34t-69 -11q-20 0 -37.5 2.5t-31.5 7.5q-16 5 -29 12t-27 15l-18 -31q17 -10 31 -16.5t33 -12.5
q16 -5 34.5 -7.5t44.5 -2.5q51 0 86.5 15t60.5 38q26 23 41.5 49t24.5 49z" />
    <glyph glyph-name="thorn" unicode="&#xfe;" horiz-adv-x="739" 
d="M672 268q0 61 -20 110t-54 85q-84 89 -221 89q-42 0 -76 -7t-63 -21q-55 -25 -90 -58v269h-36v-991h36v323q22 -19 47.5 -35.5t48.5 -25.5q41 -18 75 -22t58 -4q73 0 128.5 24.5t90.5 62.5q41 44 58.5 96t17.5 105zM636 268q0 -58 -18.5 -102t-47.5 -76
q-38 -42 -88.5 -59.5t-104.5 -17.5q-38 0 -68.5 6.5t-53.5 16.5q-22 10 -48.5 27.5t-58.5 46.5v312q23 23 49.5 41.5t53.5 31.5q32 14 63.5 19t62.5 5q64 0 113 -21t81 -56t48.5 -80.5t16.5 -93.5z" />
    <glyph glyph-name="ydieresis" unicode="&#xff;" horiz-adv-x="661" 
d="M485 604v93h-34v-93h34zM257 604v93h-34v-93h34zM638 540h-38l-107 -250q-52 -120 -105 -245q-38 60 -76.5 121.5t-76.5 122.5l-158 251h-41l335 -533l-50 -114q-23 -51 -57 -84q-24 -23 -55 -34t-69 -11q-20 0 -37.5 2.5t-31.5 7.5q-16 5 -29 12t-27 15l-18 -31
q17 -10 31 -16.5t33 -12.5q16 -5 34.5 -7.5t44.5 -2.5q51 0 86.5 15t60.5 38q26 23 41.5 49t24.5 49z" />
    <glyph glyph-name="minus" unicode="&#xe000;" horiz-adv-x="800" 
d="M664 237v32h-528v-32h528z" />
    <glyph glyph-name="notequal" unicode="&#xe001;" horiz-adv-x="682" 
d="M322 426v-44q1 -79 1.5 -157.5t2.5 -158.5q-26 5 -42.5 17.5t-30.5 29.5h-39q18 -29 44 -52t68 -29q1 -34 1 -68t1 -74h26q1 39 1 73t1 67q25 1 45 8.5t35.5 19t27.5 26t22 29.5h-39q-16 -19 -36.5 -33t-54.5 -16q2 80 2.5 159t1.5 159v49q19 -25 47.5 -43t72.5 -18
q27 0 47.5 7t37 18.5t29 26.5t22.5 31h-39q-17 -20 -38.5 -34.5t-58.5 -14.5t-58.5 14.5t-38.5 34.5h-24q-1 17 -1 34t-1 34l187 -3v37l-187 -3l4 179h-40l4 -179l-187 3v-37l187 3q-1 -19 -1.5 -38t-0.5 -38h-26q-17 -20 -38.5 -34.5t-58.5 -14.5t-58.5 14.5t-38.5 34.5
h-39q10 -16 22.5 -31t29 -26.5t37 -18.5t47.5 -7q45 0 73.5 19t48.5 45z" />
    <glyph glyph-name="infinity" unicode="&#xe002;" horiz-adv-x="684" 
d="M366 693h-39q-17 -20 -38.5 -34.5t-58.5 -14.5t-58.5 14.5t-38.5 34.5h-39q10 -16 22.5 -31t29 -26.5t37 -18.5t47.5 -7t47.5 7t37 18.5t29 26.5t22.5 31zM686 693h-39q-17 -20 -38.5 -34.5t-58.5 -14.5q-35 0 -56 13t-36 30v43h-36v-37h-8l8 -12v-537q0 -53 -9 -82
t-27 -50q-15 -18 -35.5 -29t-42 -17.5t-43.5 -9t-41 -2.5q-22 0 -39 2t-30 5q-14 3 -23.5 6.5t-17.5 5.5q-26 10 -45.5 21.5t-44.5 30.5l-21 -29q28 -21 52 -33.5t48 -22.5q26 -9 54 -14t62 -5q131 0 192 69q24 26 35.5 61t11.5 94v496q17 -13 39.5 -22t52.5 -9q27 0 47.5 7
t37 18.5t29 26.5t22.5 31zM366 -177h-39q-17 -20 -38.5 -34.5t-58.5 -14.5t-58.5 14.5t-38.5 34.5h-39q10 -16 22.5 -31t29 -26.5t37 -18.5t47.5 -7t47.5 7t37 18.5t29 26.5t22.5 31z" />
    <glyph glyph-name="lessequal" unicode="&#xe003;" horiz-adv-x="684" 
d="M591 693h-39q-17 -20 -38.5 -34.5t-58.5 -14.5t-58.5 14.5t-38.5 34.5h-39q10 -16 22.5 -31t29 -26.5t37 -18.5t47.5 -7t47.5 7t37 18.5t29 26.5t22.5 31zM682 -4l-21 29q-25 -19 -44.5 -30.5t-45.5 -21.5q-8 -2 -17.5 -5.5t-23.5 -6.5q-13 -3 -30 -5t-39 -2
q-19 0 -41 2.5t-44 9t-42 17.5t-35 29q-18 21 -27 50t-9 82v537l8 12h-8v37h-36v-43q-15 -17 -36 -30t-56 -13q-37 0 -58.5 14.5t-38.5 34.5h-39q10 -16 22.5 -31t29 -26.5t37 -18.5t47.5 -7q30 0 52.5 9t39.5 22v-496q0 -59 11.5 -94t35.5 -61q61 -69 192 -69q34 0 62 5
t54 14q24 10 48 22.5t52 33.5zM591 -177h-39q-17 -20 -38.5 -34.5t-58.5 -14.5t-58.5 14.5t-38.5 34.5h-39q10 -16 22.5 -31t29 -26.5t37 -18.5t47.5 -7t47.5 7t37 18.5t29 26.5t22.5 31z" />
    <glyph glyph-name="greaterequal" unicode="&#xe004;" horiz-adv-x="788" 
d="M346 613h-39q-3 -4 -6 -7l-6 -6q-17 29 -46.5 46t-64.5 17h-1q-27 0 -51 -10.5t-41.5 -28t-28 -41.5t-10.5 -51t10.5 -51t28 -41.5t41.5 -28t51 -10.5t51 10.5t41.5 28t28 41.5t10.5 51q0 17 -5 35q10 8 18 18.5t19 27.5zM267 578q-11 -6 -25 -10t-32 -4q-33 0 -53.5 12
t-35.5 27q27 24 62 24h1q27 0 49 -13.5t34 -35.5zM279 532q0 -40 -27.5 -67.5t-67.5 -27.5t-67.5 27.5t-27.5 67.5q0 25 11 45q17 -18 43.5 -32.5t66.5 -14.5q20 0 37 4t31 11q1 -4 1 -13zM726 613h-39q-8 -11 -18 -19q-17 31 -47 50t-68 19h-1q-28 0 -52.5 -11t-42.5 -30
v118h-36v-208v-378q0 -53 -9 -82t-27 -50q-15 -18 -35.5 -29t-42 -17.5t-43.5 -9t-41 -2.5q-22 0 -39 2t-30 5q-14 3 -23.5 6.5t-17.5 5.5q-26 10 -45.5 21.5t-44.5 30.5l-21 -29q28 -21 52 -33.5t48 -22.5q26 -9 54 -14t62 -5q131 0 192 69q24 26 35.5 61t11.5 94v287
q18 -19 42.5 -30t52.5 -11q27 0 51 10.5t41.5 28t28 41.5t10.5 51q0 14 -3 28q13 10 23 22t22 31zM639 574q-10 -5 -22 -7.5t-27 -2.5q-35 0 -55.5 13t-37.5 31q25 19 56 19h1q29 0 51.5 -15t33.5 -38zM649 532q0 -40 -27.5 -67.5t-67.5 -27.5t-67.5 27.5t-27.5 67.5
q0 14 4 27.5t11 24.5q17 -20 44.5 -37t71.5 -17q32 0 59 11v-9zM459 -27l-37 -1q0 -3 -1 -20t-4.5 -38.5t-11 -44t-19.5 -37.5q-16 -19 -36 -30.5t-41.5 -17.5t-43.5 -8t-41 -2q-22 0 -39 2t-30 5q-14 3 -23.5 6.5t-17.5 5.5q-26 10 -45.5 21.5t-44.5 30.5l-21 -29
q28 -21 52 -33.5t48 -22.5q26 -9 54 -14t62 -5q33 0 59.5 2t49.5 9t43 21t40 37q15 18 24.5 45.5t15 54t7 45z" />
    <glyph glyph-name="partialdiff" unicode="&#xe005;" horiz-adv-x="788" 
d="M459 -27l-37 -1q0 -3 -1 -20t-4.5 -38.5t-11 -44t-19.5 -37.5q-16 -19 -36 -30.5t-41.5 -17.5t-43.5 -8t-41 -2q-22 0 -39 2t-30 5q-14 3 -23.5 6.5t-17.5 5.5q-26 10 -45.5 21.5t-44.5 30.5l-21 -29q28 -21 52 -33.5t48 -22.5q26 -9 54 -14t62 -5q33 0 59.5 2t49.5 9
t43 21t40 37q15 18 24.5 45.5t15 54t7 45z" />
    <glyph glyph-name="summation" unicode="&#xe006;" horiz-adv-x="684" 
d="M366 693h-39q-17 -20 -38.5 -34.5t-58.5 -14.5t-58.5 14.5t-38.5 34.5h-39q10 -16 22.5 -31t29 -26.5t37 -18.5t47.5 -7t47.5 7t37 18.5t29 26.5t22.5 31zM686 693h-39q-17 -20 -38.5 -34.5t-58.5 -14.5q-35 0 -56 13t-36 30v43h-36v-37h-8l8 -12v-537q0 -53 -9 -82
t-27 -50q-15 -18 -35.5 -29t-42 -17.5t-43.5 -9t-41 -2.5q-22 0 -39 2t-30 5q-14 3 -23.5 6.5t-17.5 5.5q-26 10 -45.5 21.5t-44.5 30.5l-21 -29q28 -21 52 -33.5t48 -22.5q26 -9 54 -14t62 -5q131 0 192 69q24 26 35.5 61t11.5 94v496q17 -13 39.5 -22t52.5 -9q27 0 47.5 7
t37 18.5t29 26.5t22.5 31zM366 -177h-39q-17 -20 -38.5 -34.5t-58.5 -14.5t-58.5 14.5t-38.5 34.5h-39q10 -16 22.5 -31t29 -26.5t37 -18.5t47.5 -7t47.5 7t37 18.5t29 26.5t22.5 31z" />
    <glyph glyph-name="product" unicode="&#xe007;" horiz-adv-x="788" 
d="M642 575h-11q-14 38 -47.5 63t-76.5 25h-1q-43 0 -76 -25t-47 -63h-13l9 -14q-3 -14 -3 -29q0 -27 10.5 -51t28 -41.5t41.5 -28t51 -10.5t51 10.5t41.5 28t28 41.5t10.5 51q0 18 -4 31zM595 566q-14 -16 -35 -28t-54 -12t-53.5 12t-35.5 28q11 27 34.5 44t54.5 17h1
q30 0 53.5 -17t34.5 -44zM601 525q-3 -37 -30 -62.5t-65 -25.5t-65 25.5t-30 62.5q17 -14 40 -23.5t55 -9.5t55 9.5t40 23.5zM687 6l-21 29q-25 -19 -44.5 -30.5t-45.5 -21.5q-8 -2 -17.5 -5.5t-23.5 -6.5q-13 -3 -30 -5t-39 -2q-19 0 -41 2.5t-44 9t-42 17.5t-35 29
q-18 21 -27 50t-9 82v378v39l8 12h-8v157h-36v-118q-18 19 -42.5 30t-52.5 11h-1q-41 0 -73 -22.5t-47 -57.5h-12l8 -12q-6 -18 -6 -39q0 -27 10.5 -51t28 -41.5t41.5 -28t51 -10.5q28 0 52.5 11t42.5 30v-287q0 -59 11.5 -94t35.5 -61q61 -69 192 -69q34 0 62 5t54 14
q24 10 48 22.5t52 33.5zM224 568q-14 -14 -34 -24t-50 -10q-33 0 -54 12t-35 28q11 23 34 38t51 15h1q29 0 52.5 -16.5t34.5 -42.5zM231 530q-1 -39 -28.5 -66t-66.5 -27q-20 0 -37.5 7.5t-30.5 20t-20 30t-7 37.5v5q17 -15 41 -26t58 -11q30 0 52 8.5t39 21.5zM687 -184
l-21 29q-25 -19 -44.5 -30.5t-45.5 -21.5q-8 -2 -17.5 -5.5t-23.5 -6.5q-13 -3 -30 -5t-39 -2q-19 0 -41 2t-43.5 8t-41.5 17.5t-36 30.5q-12 15 -19.5 37.5t-11 44t-4.5 38.5t-1 20l-36 1l1.5 -18.5t6.5 -45t14.5 -54t24.5 -45.5q19 -23 39.5 -37t43.5 -21t49.5 -9t59.5 -2
q34 0 62 5t54 14q24 10 48 22.5t52 33.5z" />
    <glyph glyph-name="pi" unicode="&#xe008;" horiz-adv-x="587" 
d="M286 613h-39q-17 -20 -38.5 -34.5t-58.5 -14.5t-58.5 14.5t-38.5 34.5h-39q10 -16 22.5 -31t29 -26.5t37 -18.5t47.5 -7t47.5 7t37 18.5t29 26.5t22.5 31zM586 188l-33 13q-28 -57 -91.5 -90.5t-173.5 -33.5q-50 0 -94 7t-77 23t-52.5 42t-19.5 64q0 26 6.5 47t21 38.5
t38 33.5t57.5 33q46 22 77.5 42.5t51.5 44t29.5 51t11.5 63.5q17 -15 41 -25.5t57 -10.5q27 0 47.5 7t37 18.5t29 26.5t22.5 31h-39q-17 -20 -38.5 -34.5t-58.5 -14.5t-58.5 14.5t-38.5 34.5h-1v6h-31v-14l8 8q-2 -39 -9 -69t-23.5 -55t-46 -46.5t-76.5 -44.5
q-42 -20 -70.5 -39t-46.5 -40.5t-26 -46.5t-8 -57q0 -49 22.5 -82t60.5 -52.5t88 -28t104 -8.5q67 0 117 10.5t86 29.5t60 45.5t39 58.5zM572 -87h-39q-17 -20 -38.5 -34.5t-58.5 -14.5t-58.5 14.5t-38.5 34.5h-39q10 -16 22.5 -31t29 -26.5t37 -18.5t47.5 -7t47.5 7
t37 18.5t29 26.5t22.5 31z" />
    <glyph glyph-name="integral" unicode="&#xe009;" horiz-adv-x="638" 
d="M614 492q0 17 -5 35l-1 -7q-11 47 -45 75t-79 28h-1q-44 0 -77.5 -25.5t-46.5 -64.5h-14l10 -14q-3 -14 -3 -27q0 -27 10.5 -51t28 -41.5t41.5 -28t51 -10.5t51 10.5t41.5 28t28 41.5t10.5 51zM573 526q-15 -16 -36 -29t-56 -13q-32 0 -52.5 11.5t-34.5 26.5
q9 29 33.5 47t55.5 18h1q30 0 54 -17t35 -44zM579 486q-3 -38 -30 -63.5t-65 -25.5q-37 0 -63 24t-31 59q16 -13 38.5 -21.5t52.5 -8.5q33 0 57 10.5t41 25.5zM586 188l-33 13q-28 -57 -91.5 -90.5t-173.5 -33.5q-50 0 -94 7t-77 23t-52.5 42t-19.5 64q0 26 6.5 47t21 38.5
t38 33.5t57.5 33q53 25 87 49t53.5 52.5t25.5 65t4 87.5h-31q1 -41 -3.5 -72t-20.5 -56.5t-45.5 -47.5t-77.5 -45q-42 -20 -70.5 -39t-46.5 -40.5t-26 -46.5t-8 -57q0 -49 22.5 -82t60.5 -52.5t88 -28t104 -8.5q67 0 117 10.5t86 29.5t60 45.5t39 58.5zM600 -184l-22 29
q-25 -19 -44 -30.5t-45 -21.5q-8 -2 -18 -5.5t-23 -6.5q-14 -3 -30.5 -5t-39.5 -2q-19 0 -40.5 2t-43.5 8t-42 17.5t-35 30.5q-13 15 -20.5 37.5t-11 44t-4.5 38.5t-1 20l-36 1l1.5 -18.5t7 -45t14.5 -54t24 -45.5q19 -23 39.5 -37t43.5 -21t50 -9t59 -2q34 0 62 5t54 14
q25 10 49 22.5t52 33.5z" />
    <glyph glyph-name="Omega" unicode="&#xe00a;" horiz-adv-x="638" 
d="M614 597q0 27 -10.5 51t-28 41.5t-41 28t-50.5 10.5h-1q-27 0 -51 -10.5t-41.5 -28t-28 -41.5t-10.5 -51t10.5 -51t28 -42t41.5 -28t51 -10t51 10t41.5 28t28 42t10.5 51zM536 676h-9l-52 -50l-28 -27v19v58h-15q22 16 51 16h1q28 0 52 -16zM579 597q0 -41 -29 -68
l-62 70l65 63q12 -13 19 -29.5t7 -35.5zM527 512q-19 -10 -43 -10q-22 0 -40 9q1 9 2 21t1 19v9l20 20zM418 528q-29 27 -29 69q0 20 7.5 37.5t21.5 31.5v-138zM586 293l-33 13q-28 -57 -91.5 -90.5t-173.5 -33.5q-50 0 -94 7t-77 22.5t-52.5 41.5t-19.5 65q0 26 6.5 47
t21 38.5t38 33.5t57.5 33q53 25 87 49t53.5 52.5t25.5 65t4 87.5h-31q1 -41 -3.5 -72t-20.5 -56.5t-45.5 -47.5t-77.5 -45q-42 -20 -70.5 -39t-46.5 -40.5t-26 -47t-8 -56.5q0 -49 22.5 -82t60.5 -52.5t88 -28t104 -8.5q67 0 117 10.5t86 29.5t60 45.5t39 58.5zM600 -79
l-22 29q-25 -20 -44 -31t-45 -21q-18 -7 -41 -12q-14 -3 -30.5 -5t-39.5 -2q-19 0 -40.5 2t-43.5 8t-42 17.5t-35 30.5q-13 15 -20.5 37.5t-11 44t-4.5 38t-1 19.5l-36 2l1.5 -18.5t7 -45t14.5 -54t24 -45.5q19 -23 39.5 -37t43.5 -21t50 -9t59 -2q34 0 62 5t54 14
q25 9 49 22t52 34z" />
    <glyph glyph-name="radical" unicode="&#xe00b;" horiz-adv-x="587" 
d="M582 611h-38q-17 -20 -39 -34.5t-58 -14.5q-37 0 -59 14.5t-39 34.5h-38q10 -16 22.5 -31t29 -26.5t37 -18.5t47.5 -7t47.5 7t37 18.5t28.5 26.5t22 31zM588 213q0 31 -8 56.5t-26 47t-47 40.5t-70 39q-48 22 -77 43.5t-45 45.5t-21 52.5t-4 64.5l-2 -4q2 3 2 11v8h-27
l-7 -9q-15 -18 -37 -32t-58 -14q-37 0 -59 14.5t-39 34.5h-38q10 -16 22.5 -31t29 -26.5t37 -18.5t47.5 -7q33 0 57 10.5t41 24.5q1 -36 10.5 -63.5t29.5 -50.5t51.5 -44t77.5 -43q34 -17 58 -32.5t38.5 -33t21 -38.5t6.5 -47q0 -39 -19.5 -65t-53 -41.5t-77.5 -22.5t-93 -7
q-111 0 -174 33.5t-91 90.5l-33 -13q15 -32 38.5 -58.5t59.5 -45.5t86 -29.5t118 -10.5q54 0 104 8t88 28t60.5 52.5t22.5 82.5zM296 -89h-38q-17 -20 -39 -34.5t-58 -14.5q-37 0 -59 14.5t-39 34.5h-38q10 -16 22.5 -31t29 -26.5t37 -18.5t47.5 -7t47.5 7t37 18.5
t28.5 26.5t22 31z" />
    <glyph glyph-name="approxequal" unicode="&#xe00c;" horiz-adv-x="638" 
d="M614 215q0 32 -8 57t-26 46.5t-46.5 40.5t-70.5 39q-48 23 -77.5 45t-45.5 47.5t-20.5 56.5t-3.5 72h-31q-2 -51 4 -87.5t25.5 -65t53.5 -52.5t87 -49q34 -17 57.5 -33t38 -33.5t21 -38.5t6.5 -47q0 -38 -19.5 -64t-52.5 -42t-77.5 -23t-93.5 -7q-110 0 -173.5 33.5
t-91.5 90.5l-33 -13q15 -32 39 -58.5t60 -45.5t85.5 -29.5t117.5 -10.5q54 0 104 8.5t88 28t60.5 52.5t22.5 82zM271 492q0 27 -10.5 51t-28 41.5t-41.5 28t-51 10.5h-1q-46 0 -80.5 -28.5t-45.5 -71.5h-10l7 -11q0 -5 -0.5 -10t-0.5 -10q0 -27 10.5 -51t28 -41.5t41.5 -28
t51 -10.5t51 10.5t41.5 28t28 41.5t10.5 51zM231 517q-15 -17 -36 -30t-56 -13t-56 13t-36 30q8 30 33.5 50t58.5 20h1q32 0 57.5 -20t33.5 -50zM232 471q-8 -32 -33.5 -53t-59.5 -21t-59.5 21t-33.5 53q17 -13 39.5 -22t53.5 -9t53.5 9t39.5 22zM479 -27l-36 -1
q0 -3 -1 -20t-5 -38.5t-11 -44t-20 -37.5q-15 -19 -35 -30.5t-42 -17.5t-43.5 -8t-40.5 -2q-23 0 -39.5 2t-30.5 5q-13 3 -23 6.5t-18 5.5q-26 10 -45 21.5t-44 30.5l-22 -29q28 -21 52 -33.5t49 -22.5q26 -9 54 -14t62 -5q32 0 59 2t50 9t43 21t40 37q15 18 24 45.5
t14.5 54t7 45z" />
    <glyph glyph-name="Delta" unicode="&#xe00d;" 
d="M792 347q0 74 -14 134t-39.5 102.5t-62.5 65.5t-83 23q-38 0 -70 -15.5t-56 -42.5t-41 -62t-25 -74q-7 35 -20 66t-32.5 53.5t-46 35.5t-60.5 13q-59 0 -103.5 -45t-64.5 -128h-10l7 -11q-11 -53 -11 -115q0 -71 14 -126.5t38 -93.5t57.5 -58.5t72.5 -20.5q33 0 59 13
t46 35.5t33.5 52.5t20.5 64q8 -38 25 -73t41.5 -61t56 -41.5t69.5 -15.5q48 0 85 24.5t62.5 68t38.5 103t13 129.5zM760 347q0 -66 -11.5 -119.5t-33.5 -91t-52.5 -58t-67.5 -20.5h-1q-32 0 -63.5 17t-56.5 52.5t-40.5 90t-15.5 129.5q0 46 6 84q17 -17 42.5 -29t61.5 -12
q27 0 47.5 7t37 18.5t29 26.5t22.5 31h-39q-17 -20 -38.5 -34.5t-58.5 -14.5q-36 0 -57.5 14t-38.5 33q22 85 67 125t95 40q38 0 68.5 -20.5t52.5 -58t33.5 -91t11.5 -119.5zM384 347q0 -67 -11 -116.5t-30.5 -82t-45 -48.5t-54.5 -16h-1q-30 0 -57 16.5t-47.5 49.5
t-32.5 82.5t-12 114.5q0 44 6 82q17 -16 41.5 -27.5t59.5 -11.5q27 0 47.5 7t37 18.5t29 26.5t22.5 31h-39q-17 -20 -38.5 -34.5t-58.5 -14.5q-35 0 -55.5 13t-37.5 31q18 72 54.5 107t80.5 35q29 0 55 -16t45.5 -48.5t30.5 -82t11 -116.5zM536 -137h-39
q-17 -20 -38.5 -34.5t-58.5 -14.5t-58.5 14.5t-38.5 34.5h-39q10 -16 22.5 -31t29 -26.5t37 -18.5t47.5 -7t47.5 7t37 18.5t29 26.5t22.5 31z" />
    <glyph glyph-name="nonbreakingspace" unicode="&#xe00e;" horiz-adv-x="266" 
 />
    <glyph glyph-name="apple" unicode="&#xe00f;" horiz-adv-x="699" 
d="M684 532q0 27 -10.5 51t-28 41.5t-41 28t-50.5 10.5h-1q-28 0 -52.5 -11t-42.5 -30v118h-36v-191h-109q-1 2 -1 5t-1 6l9 13h-13q-13 39 -46.5 64.5t-76.5 25.5h-1q-44 0 -77.5 -25.5t-46.5 -64.5h-11l7 -11q-3 -15 -3 -30q0 -27 10.5 -51t28 -41.5t41.5 -28t51 -10.5
q25 0 47.5 9t40 24.5t28.5 36.5t14 46h109v-363q0 -53 -9 -82t-27 -50q-15 -18 -35.5 -29t-42 -17.5t-43.5 -9t-41 -2.5q-22 0 -39 2t-30 5q-14 3 -23.5 6.5t-17.5 5.5q-26 10 -45.5 21.5t-44.5 30.5l-21 -29q28 -21 52 -33.5t48 -22.5q26 -9 54 -14t62 -5q131 0 192 69
q24 26 35.5 61t11.5 94v287q18 -19 42.5 -30t52.5 -11q27 0 51 10.5t41.5 28t28 41.5t10.5 51zM594 618l-53 -51l-27 -26v18v60q19 8 39 8h1q22 0 40 -9zM649 532q0 -39 -27 -66l-66 73l64 61q29 -27 29 -68zM597 447q-10 -5 -20.5 -7.5t-22.5 -2.5q-22 0 -40 9v53l20 20z
M483 468q-24 27 -24 64t24 64v-128zM273 564q-14 -16 -35 -28t-54 -12t-54 12t-35 28q10 28 34 45.5t54 17.5h1q31 0 55 -17.5t34 -45.5zM279 523q-4 -36 -31 -61t-64 -25t-64 25t-31 61q17 -14 40 -23.5t55 -9.5t55 9.5t40 23.5zM459 -27l-37 -1q0 -3 -1 -20t-4.5 -38.5
t-11 -44t-19.5 -37.5q-16 -19 -36 -30.5t-41.5 -17.5t-43.5 -8t-41 -2q-22 0 -39 2t-30 5q-14 3 -23.5 6.5t-17.5 5.5q-26 10 -45.5 21.5t-44.5 30.5l-21 -29q28 -21 52 -33.5t48 -22.5q26 -9 54 -14t62 -5q33 0 59.5 2t49.5 9t43 21t40 37q15 18 24.5 45.5t15 54t7 45z" />
    </font>
</defs>
</svg>
